<?xml version="1.0" encoding="UTF-8" standalone="no"?>
<svg
   xmlns:dc="http://purl.org/dc/elements/1.1/"
   xmlns:cc="http://creativecommons.org/ns#"
   xmlns:rdf="http://www.w3.org/1999/02/22-rdf-syntax-ns#"
   xmlns:svg="http://www.w3.org/2000/svg"
   xmlns="http://www.w3.org/2000/svg"
   xmlns:sodipodi="http://sodipodi.sourceforge.net/DTD/sodipodi-0.dtd"
   xmlns:inkscape="http://www.inkscape.org/namespaces/inkscape"
   width="1200mm"
   height="700mm"
   viewBox="0 0 1200 700"
   version="1.1"
   id="svg2149"
   inkscape:version="1.0.2-2 (e86c870879, 2021-01-15)"
   sodipodi:docname="Impression finale - Cercle externe.svg">
  <defs
     id="defs2143" />
  <sodipodi:namedview
     id="base"
     pagecolor="#ffffff"
     bordercolor="#666666"
     borderopacity="1.0"
     inkscape:pageopacity="0.0"
     inkscape:pageshadow="2"
     inkscape:zoom="0.04375"
     inkscape:cx="-1226.7607"
     inkscape:cy="2274.467"
     inkscape:document-units="mm"
     inkscape:current-layer="layer1"
     inkscape:document-rotation="0"
     showgrid="false"
     inkscape:window-width="1842"
     inkscape:window-height="1051"
     inkscape:window-x="-9"
     inkscape:window-y="-9"
     inkscape:window-maximized="1" />
  <metadata
     id="metadata2146">
    <rdf:RDF>
      <cc:Work
         rdf:about="">
        <dc:format>image/svg+xml</dc:format>
        <dc:type
           rdf:resource="http://purl.org/dc/dcmitype/StillImage" />
        <dc:title />
      </cc:Work>
    </rdf:RDF>
  </metadata>
  <g
     inkscape:label="Calque 1"
     inkscape:groupmode="layer"
     id="layer1">
    <path
       id="path212"
       style="fill:none;stroke:#0000ff;stroke-width:0.001;stroke-opacity:1;stroke-miterlimit:4;stroke-dasharray:none"
       d="m 731.90149,214.6675 v 90.04204 h -24.9798 v 111.98077 h -190.0138 v 232.93874 h 1.154 v 9.99734 h -1.1529 v 15.0001 a 459.93539,459.93539 0 0 0 459.91052,-459.93573 459.93539,459.93539 0 0 0 0,-0.0233 h -15.64302 v 1.25521 h -9.9973 v -1.25471 z m 230.6464,13.68909 0.9989,0.0351 -0.3498,9.99318 -0.9989,-0.0351 z m -12.7062,20.48917 9.9632,0.8258 -0.2475,2.98743 -9.9637,-0.82632 z m -4.2984,35.68777 9.8609,1.64589 -0.4935,2.95691 -9.8609,-1.6464 z m -7.2306,35.21128 9.6914,2.45462 -0.7364,2.90579 -9.6914,-2.45515 z m 7.259,17.47179 0.9596,0.27905 -2.7921,9.60149 -0.9601,-0.27905 z m -17.3731,17.0217 9.4557,3.24684 -0.9735,2.83498 -9.4558,-3.24684 z m -12.9279,33.54059 9.155,4.0168 -1.2041,2.74455 -9.155,-4.01629 z m -15.6533,32.35876 8.7917,4.75887 -1.4268,2.63602 -8.7917,-4.75888 z m 2.7729,18.43968 0.862,0.50594 -5.0638,8.62272 -0.8619,-0.50644 z m -21.0457,12.51554 8.3695,5.46838 -1.6397,2.50941 -8.369,-5.46891 z m -20.7662,29.34033 7.889,6.14122 -1.8413,2.36521 -7.8889,-6.14122 z m -23.1185,27.52545 7.3552,6.77167 -2.0304,2.20503 -7.3546,-6.77169 z m -1.8128,18.27691 0.7111,0.70229 -7.0254,7.11533 -0.7116,-0.70228 z m -23.4993,7.24556 6.7701,7.35561 -2.205,2.02985 -6.7707,-7.35563 z m -27.3337,23.3443 6.1396,7.88995 -2.3652,1.84073 -6.1402,-7.88945 z m -29.1683,21.00802 5.4674,8.37004 -2.5094,1.63917 -5.4674,-8.37004 z m -30.8033,18.52702 4.7574,8.79277 -2.6366,1.42626 -4.7573,-8.79274 z m -32.2285,15.91998 4.0153,9.15551 -2.7451,1.20407 -4.0152,-9.15604 z m -33.4331,13.20435 3.2453,9.45576 -2.835,0.97306 -3.2453,-9.45626 z m -34.4087,10.39781 2.453,9.69192 -2.9057,0.73536 -2.4531,-9.69192 z m 24.2347,4.269 0.2909,0.95602 -9.5653,2.91404 -0.2915,-0.95602 z m -59.3851,3.25199 1.6444,9.86142 -2.9564,0.493 -1.6444,-9.86142 z m -35.6515,4.59251 0.8247,9.96373 -2.9874,0.24699 -0.8242,-9.96321 z m -13.438,11.44166 0.048,0.99788 -9.988,0.47646 -0.048,-0.9984 z" />
    <path
       id="path212-2"
       style="fill:none;stroke:#0000ff;stroke-width:0.001;stroke-opacity:1;stroke-miterlimit:4;stroke-dasharray:none"
       d="m 21.492937,217.31221 a 459.93539,459.93539 0 0 0 0,0.0238 459.93539,459.93539 0 0 0 459.935763,459.93575 459.93539,459.93539 0 0 0 0.0249,0 v -15.00063 h -1.84381 v -9.99733 h 1.84381 V 419.33553 H 267.4687 V 217.31221 H 45.926147 v 1.82366 l -9.99731,-0.003 v -1.82108 z m 15.24352,13.1346 0.47593,9.98802 -0.99838,0.0475 -0.47593,-9.98802 z m 10.57298,21.60953 0.24702,2.98742 -9.9632,0.82372 -0.24755,-2.9869 z m 4.34496,35.68206 0.49247,2.95692 -9.86089,1.64383 -0.49299,-2.9564 z m 7.27657,35.20147 0.73536,2.90628 -9.69192,2.45256 -0.73536,-2.90576 z m 10.15855,34.48058 0.97306,2.83497 -9.45626,3.24476 -0.97256,-2.83497 z m 12.97181,33.52354 1.20356,2.74505 -9.15604,4.01474 -1.20354,-2.74505 z m 15.69569,32.33807 1.42626,2.63602 -8.79324,4.75733 -1.42629,-2.63653 z m -1.11723,17.49299 5.172793,8.55762 -0.85524,0.51728 -5.172823,-8.55762 z m 19.429813,13.43794 1.63917,2.50941 -8.37004,5.46736 -1.63917,-2.50992 z m 20.80493,29.31346 1.8407,2.36523 -7.89046,6.13968 -1.84073,-2.36574 z m 23.15413,27.49496 2.02936,2.20554 -7.35616,6.77013 -2.02986,-2.20554 z m 3.25512,17.50951 7.1148,7.02593 -0.70228,0.71107 -7.11481,-7.02593 z m 22.09011,7.97936 2.20504,2.03039 -6.77169,7.35457 -2.20501,-2.03036 z m 27.36422,23.30918 2.36524,1.84124 -6.14175,7.88839 -2.36524,-1.84121 z m 29.19563,20.96926 2.50891,1.63971 -5.46894,8.36898 -2.50938,-1.63968 z m 7.49774,16.45172 8.62221,5.06428 -0.50641,0.86146 -8.62222,-5.06429 z m 23.32934,2.03501 2.63599,1.42679 -4.75888,8.79221 -2.63601,-1.42729 z m 32.24919,15.8781 2.74452,1.20406 -4.0168,9.15501 -2.74505,-1.20407 z m 33.44963,13.16045 2.83496,0.97356 -3.24734,9.45526 -2.83496,-0.97359 z m 34.42271,10.35286 2.90576,0.73638 -2.45567,9.6914 -2.90576,-0.73639 z m -23.07148,4.03127 9.60149,2.79259 -0.27905,0.95962 -9.602,-2.7926 z m 58.23109,3.44371 2.9564,0.49403 -1.6464,9.86089 -2.95642,-0.49403 z m 35.65726,4.54599 2.98688,0.24805 -0.82629,9.9632 -2.98741,-0.24805 z m 14.57843,11.43495 9.99318,0.34986 -0.0351,0.9989 -9.99371,-0.34986 z" />
    <path
       id="path212-2-0"
       style="fill:none;stroke:#0000ff;stroke-width:0.001;stroke-opacity:1;stroke-miterlimit:4;stroke-dasharray:none"
       d="m 516.90849,-274.87802 v 15.07865 h 0.54 v 9.99734 h -0.54 v 232.859715 h 190.0131 v 107.0193 h 24.9799 v 94.956995 h 219.2765 v -1.7441 h 9.99733 v 1.7441 h 15.64296 a 459.93539,459.93539 0 0 0 -459.90979,-459.912 z m 14.1793,13.80224 9.9933,0.34934 -0.035,0.99891 -9.9936,-0.34933 z m 20.1099,2.64481 2.9874,0.24755 -0.8258,9.9627 -2.9868,-0.24702 z m 36.5085,4.39819 2.9562,0.49351 -1.6452,9.86089 -2.9569,-0.4935 z m 36.0199,7.39851 2.9059,0.73536 -2.4543,9.69141 -2.9056,-0.73536 z m 16.4663,2.56831 9.602,2.79104 -0.2791,0.96015 -9.602,-2.79207 z m 18.8201,7.77936 2.8348,0.97309 -3.2462,9.45626 -2.835,-0.97358 z m 34.311,13.22608 2.745,1.20457 -4.0163,9.155 -2.745,-1.20407 z m 33.1018,16.01558 2.636,1.42675 -4.7583,8.79224 -2.636,-1.42679 z m 15.3572,6.25181 8.6228,5.06375 -0.506,0.86145 -8.6227,-5.06275 z m 16.3086,12.4416 2.5094,1.6397 -5.4684,8.36898 -2.5094,-1.63967 z m 30.01416,21.24469 2.36525,1.84176 -6.14071,7.88893 -2.3652,-1.84074 z m 28.15696,23.65129 2.20554,2.02983 -6.77169,7.35563 -2.20501,-2.02986 z m 13.3785,9.55238 7.11583,7.02488 -0.70228,0.71159 -7.11584,-7.02593 z m 12.72945,16.34318 2.02985,2.20554 -7.35563,6.77013 -2.02983,-2.20503 z m 23.8802,27.963175 1.84071,2.3647 -7.88943,6.1407 -1.84123,-2.3652 z m 21.48912,29.839 1.6392,2.5094 -8.36954,5.4679 -1.63917,-2.5094 z m 10.64948,12.2649 5.17334,8.5571 -0.85524,0.5173 -5.17334,-8.5571 z m 8.30236,19.2474 1.42626,2.636 -8.79274,4.7589 -1.42629,-2.6371 z m 16.28425,32.97 1.20407,2.7446 -9.15551,4.0158 -1.20407,-2.7451 z m 13.50669,34.2016 0.97306,2.8355 -9.45626,3.2458 -0.97309,-2.8355 z m 7.33803,14.2249 2.91458,9.5654 -0.95655,0.2909 -2.91402,-9.5653 z m 3.29748,20.976 0.73536,2.9053 -9.6914,2.4541 -0.73586,-2.9053 z m 7.69205,35.958595 0.4935,2.9564 -9.86142,1.6454 -0.49297,-2.9565 z m 4.69685,36.4706 0.24755,2.9879 -9.96373,0.8243 -0.24702,-2.9869 z" />
    <path
       id="path212-2-5"
       style="fill:none;stroke:#0000ff;stroke-width:0.001;stroke-opacity:1;stroke-miterlimit:4;stroke-dasharray:none"
       d="M 481.4288,-274.87921 A 459.93539,459.93539 0 0 0 21.4931,185.03284 h 14.4358 v -1.1761 h 9.9973 v 1.1761 H 267.4687 V -16.942315 H 481.4541 V -249.80321 h -2.4572 v -9.9973 h 2.4572 v -15.0787 a 459.93539,459.93539 0 0 0 -0.025,0 z m -12.6034,13.717 0.047,0.9984 -9.9881,0.4754 -0.047,-0.9984 z m -23.4823,2.7771 0.8232,9.9637 -2.9868,0.2465 -0.8238,-9.9632 z m -36.5026,4.4452 1.6438,9.8614 -2.9569,0.4925 -1.6433,-9.8614 z m -36.0108,7.444 2.4526,9.6919 -2.9058,0.7354 -2.4525,-9.6919 z m -13.1464,2.2133 0.2909,0.956 -9.5658,2.913 -0.291,-0.956 z m -22.1263,8.1794 3.2442,9.4567 -2.835,0.9726 -3.2442,-9.4563 z m -34.2941,13.2699 4.0143,9.1566 -2.7451,1.2035 -4.0142,-9.1565 z m -33.0811,16.057 4.7568,8.7937 -2.6366,1.4258 -4.7568,-8.7933 z m -12.1575,5.6502 0.5173,0.8553 -8.5581,5.1718 -0.5168,-0.8553 z m -19.4845,13.084 5.4663,8.3705 -2.5094,1.6387 -5.4664,-8.3705 z m -29.9869,21.2829 6.1392,7.8905 -2.3657,1.8402 -6.1392,-7.8905 z m -28.1269,23.6865 6.7696,7.3566 -2.2055,2.0298 -6.7697,-7.3566 z m -10.3549,8.7384 0.7115,0.7023 -7.0264,7.11483 -0.7111,-0.7023 z m -15.72,17.19029 7.3541,6.77224 -2.0304,2.20501 -7.3541,-6.77224 z m -23.8445,27.993193 7.8884,6.1418 -1.8418,2.3652 -7.8879,-6.1417 z m -21.4515,29.8669 8.369,5.4695 -1.6402,2.5088 -8.3684,-5.4694 z m -18.9115,31.536109 8.7918,4.759902 -1.4268,2.636001 -8.7917,-4.759902 z M 73.9012,5.2423757 83.0557,9.2602736 81.8511,12.004773 72.6967,7.9874742 Z m -13.4627,34.2190973 9.4552,3.2479 -0.9736,2.835 -9.4552,-3.2479 z m -4.793,13.1486 0.9596,0.279 -2.7931,9.6015 -0.9596,-0.2791 z m -5.7981,22.065261 9.6914,2.455688 -0.7364,2.905632 -9.6909,-2.455535 z m -7.6466,35.968206 9.8609,1.6469 -0.494,2.9564 -9.8604,-1.6469 z m -4.6498,36.4768 9.9627,0.8268 -0.2476,2.9874 -9.9632,-0.8272 z m -1.3751,14.1996 0.9989,0.035 -0.3504,9.9931 -0.9989,-0.035 z" />
    <path
       id="path212-9"
       style="fill:none;stroke:#0000ff;stroke-width:0.001;stroke-opacity:1;stroke-miterlimit:4;stroke-dasharray:none"
       d="M 1560.286,-193.84024 A 459.93539,459.93539 0 0 0 1100.3503,266.095 459.93539,459.93539 0 0 0 1560.286,726.03073 459.93539,459.93539 0 0 0 2020.2213,266.095 459.93539,459.93539 0 0 0 1560.286,-193.84024 Z m -12.6033,13.71701 0.048,0.99837 -9.988,0.47543 -0.048,-0.9984 z m 26.8082,0.0853 9.9931,0.34932 -0.035,0.99891 -9.9937,-0.34933 z m -16.6368,1.2764 h 2.9973 v 9.99733 h -2.9973 z m 36.7466,1.3684 2.9875,0.24754 -0.8258,9.9632 -2.9869,-0.24751 z m -70.4003,0.0465 0.8232,9.96373 -2.9869,0.24649 -0.8237,-9.96321 z m 106.9087,4.35218 2.9564,0.49353 -1.6454,9.86089 -2.9569,-0.4935 z m -143.4114,0.093 1.6438,9.86142 -2.9569,0.49247 -1.6433,-9.86142 z m 179.4314,7.30549 2.9058,0.73589 -2.4541,9.69139 -2.9058,-0.73588 z m -215.4421,0.13848 2.4525,9.69193 -2.9057,0.73536 -2.4526,-9.69193 z m -13.1465,2.21332 0.2909,0.95602 -9.5658,2.91298 -0.2909,-0.95601 z m 245.0548,0.21651 9.602,2.79157 -0.2791,0.95964 -9.602,-2.79156 z m 18.82,7.77939 2.835,0.97358 -3.2463,9.45576 -2.835,-0.97359 z m -286.0011,0.18343 3.2442,9.45679 -2.8349,0.97256 -3.2443,-9.45626 z m 320.3122,13.04314 2.7451,1.20407 -4.0163,9.15551 -2.7451,-1.20407 z m -354.6062,0.22685 4.0142,9.15657 -2.7451,1.20354 -4.0142,-9.15654 z m 387.7081,15.78819 2.636,1.4268 -4.7584,8.79224 -2.636,-1.4268 z m -420.7893,0.26871 4.7568,8.79381 -2.6365,1.42573 -4.7569,-8.79325 z m -12.1574,5.65032 0.5173,0.85524 -8.5582,5.17178 -0.5167,-0.85524 z m 448.3039,0.33332 8.6227,5.06325 -0.5059,0.86196 -8.6227,-5.06325 z m 16.3085,12.44161 2.5095,1.63917 -5.4684,8.369506 -2.5095,-1.63967 z m -484.097,0.30903 5.4663,8.370536 -2.5094,1.63868 -5.4663,-8.370566 z m 514.1112,20.935656 2.3653,1.84124 -6.1407,7.88892 -2.3653,-1.84071 z m -544.098,0.34727 6.1392,7.89048 -2.3658,1.8402 -6.1392,-7.89048 z m 572.255,23.30349 2.2055,2.03036 -6.7717,7.35513 -2.205,-2.02986 z m -600.382,0.38293 6.7696,7.35666 -2.2055,2.02983 -6.7696,-7.35666 z m -10.3549,8.73847 0.7116,0.70229 -7.0265,7.1148 -0.711,-0.70228 z m 624.1154,0.43098 7.1158,7.0249 -0.7023,0.7116 -7.1158,-7.02543 z m 12.7294,16.34321 2.0299,2.20554 -7.3556,6.77064 -2.0299,-2.20502 z m -652.5648,0.41598 7.3541,6.77219 -2.0304,2.20504 -7.354,-6.77219 z m 676.445,27.5471696 1.8407,2.36522 -7.8894,6.14070999 -1.8412,-2.36573999 z m -700.2895,0.44596 7.8884,6.14174 -1.8418,2.36521999 -7.8879,-6.14171999 z m 721.7787,29.3935604 1.6391,2.50939 -8.3695,5.46788 -1.6392,-2.50939 z m -743.2301,0.47334 8.369,5.46944 -1.6402,2.50889 -8.3685,-5.46944 z m 753.8795,11.79153 5.1734,8.5571 -0.8553,0.51676 -5.1733,-8.5571 z m 8.3024,19.24741 1.4262,2.63601 -8.7927,4.75838 -1.4263,-2.63655 z m -781.0934,0.49712 8.7917,4.75993 -1.4268,2.636 -8.7917,-4.75991 z m 177.3251,10.80556 h 403.9986 V 171.11527 h 24.9798 v 184.99851 h -24.9798 V 468.09455 H 1346.326 Z m 620.0526,21.66689 1.204,2.74505 -9.1555,4.01576 -1.2041,-2.74505 z m -813.6202,0.51779 9.1545,4.01785 -1.2046,2.74452 -9.1544,-4.01732 z m 827.1268,33.684264 0.9731,2.83496 -9.4563,3.2458 -0.973,-2.83499 z m -840.5895,0.53485 9.4552,3.24784 -0.9736,2.83499 -9.4552,-3.24787 z m -4.793,13.14855 0.9596,0.27906 -2.7931,9.60146 -0.9596,-0.27905 z m 852.7206,0.54105 2.9145,9.56529 -0.9565,0.29147 -2.914,-9.56532 z m 3.2974,20.97598 0.7354,2.90576 -9.6914,2.45411 -0.7359,-2.90576 z m -861.8161,0.54827 9.6914,2.45568 -0.7364,2.90576 -9.6908,-2.45566 z m 869.5082,35.41024 0.4935,2.95693 -9.8614,1.64487 -0.493,-2.95641 z m -877.1548,0.55812 9.861,1.64692 -0.4941,2.9564 -9.8604,-1.64692 z m 881.8517,35.91306 0.2475,2.98741 -9.9637,0.82475 -0.2471,-2.9869 z m -886.5015,0.56377 9.9627,0.82682 -0.2475,2.98744 -9.9632,-0.82735 z m -1.3751,14.19966 0.9989,0.0351 -0.3504,9.99321 -0.9989,-0.0352 z m 879.5479,21.97023 h 9.9973 v 2.99773 h -9.9973 z m -879.7949,0.56637 9.9973,0.003 v 2.99723 l -9.9973,-0.003 z m 0.8077,14.31075 0.4759,9.98802 -0.9984,0.0476 -0.4759,-9.98802 z m 890.357,0.55502 0.9989,0.0351 -0.3498,9.99318 -0.9989,-0.0351 z m -12.7062,20.48917 9.9632,0.8258 -0.2475,2.98743 -9.9637,-0.82632 z m -867.0778,0.56537 0.247,2.98741 -9.9632,0.82372 -0.2475,-2.9869 z m 862.7794,35.1224 9.8609,1.64589 -0.4935,2.95691 -9.8609,-1.6464 z m -858.4345,0.55965 0.4925,2.95693 -9.8609,1.64383 -0.493,-2.95643 z m 851.2039,34.65163 9.6914,2.45462 -0.7364,2.90579 -9.6914,-2.45515 z m -843.9273,0.54983 0.7353,2.90629 -9.6919,2.45256 -0.7353,-2.90576 z m 851.1863,16.92196 0.9596,0.27905 -2.7921,9.60149 -0.9601,-0.27905 z m -17.3731,17.0217 9.4557,3.24684 -0.9735,2.83498 -9.4558,-3.24684 z m -823.6546,0.53692 0.973,2.83498 -9.4562,3.24475 -0.9726,-2.83496 z m 810.7267,33.00367 9.155,4.0168 -1.2041,2.74455 -9.155,-4.01629 z m -797.7549,0.51986 1.2035,2.74505 -9.156,4.01476 -1.2035,-2.74505 z m 782.1016,31.8389 8.7917,4.75887 -1.4268,2.63602 -8.7917,-4.75888 z m -766.4059,0.49919 1.4262,2.63601 -8.7932,4.75734 -1.4263,-2.63654 z m -1.1173,17.49298 5.1728,8.55763 -0.8552,0.51728 -5.1728,-8.55763 z m 770.2961,0.44751 0.862,0.50594 -5.0638,8.62272 -0.8619,-0.50644 z m -21.0457,12.51554 8.3695,5.46838 -1.6397,2.50941 -8.369,-5.46891 z m -729.8206,0.4749 1.6392,2.50941 -8.37,5.46735 -1.6392,-2.50992 z m 709.0544,28.86543 7.889,6.14122 -1.8413,2.36521 -7.8889,-6.14122 z m -688.2494,0.44802 1.8407,2.36524 -7.8905,6.13968 -1.8407,-2.36577 z m 665.1309,27.07743 7.3552,6.77167 -2.0304,2.20503 -7.3546,-6.77169 z m -641.9768,0.41754 2.0293,2.20554 -7.3561,6.77013 -2.0298,-2.20554 z m 3.2551,17.50951 7.1148,7.02594 -0.7022,0.71106 -7.1149,-7.02593 z m 636.9089,0.34986 0.7111,0.70229 -7.0254,7.11533 -0.7116,-0.70228 z m -23.4993,7.24556 6.7701,7.35561 -2.205,2.02985 -6.7707,-7.35563 z m -591.3195,0.38394 2.2051,2.03039 -6.7717,7.35457 -2.205,-2.03036 z m 563.9858,22.96036 6.1396,7.88995 -2.3652,1.84073 -6.1402,-7.88945 z m -536.6215,0.34882 2.3652,1.84124 -6.1417,7.88839 -2.3653,-1.84123 z m 507.4532,20.6592 5.4674,8.37004 -2.5094,1.63917 -5.4674,-8.37004 z m -478.2576,0.31006 2.5089,1.63971 -5.4689,8.36898 -2.5094,-1.6397 z m 7.4977,16.45172 8.6222,5.06428 -0.5064,0.86146 -8.6222,-5.06431 z m 439.9566,1.76524 4.7574,8.79277 -2.6366,1.42626 -4.7573,-8.79274 z m -416.6273,0.26977 2.6361,1.4268 -4.7589,8.79221 -2.636,-1.4273 z m 384.3988,15.65021 4.0153,9.15551 -2.7451,1.20407 -4.0152,-9.15604 z m -352.1496,0.22789 2.7446,1.20406 -4.0168,9.15498 -2.7451,-1.20403 z m 318.7165,12.97646 3.2453,9.45576 -2.835,0.97306 -3.2453,-9.45626 z m -285.2668,0.18397 2.8349,0.97358 -3.2473,9.45526 -2.835,-0.97359 z m 250.8581,10.21384 2.453,9.69192 -2.9057,0.73536 -2.4531,-9.69192 z m -216.4354,0.13901 2.9058,0.73639 -2.4557,9.69142 -2.9058,-0.73641 z m -23.0715,4.0313 9.6015,2.7926 -0.279,0.95961 -9.602,-2.79259 z m 263.7416,0.0987 0.2909,0.95602 -9.5653,2.91404 -0.2915,-0.95602 z m -59.3851,3.25199 1.6444,9.86142 -2.9564,0.493 -1.6444,-9.86142 z m -146.1254,0.093 2.9564,0.49403 -1.6464,9.86089 -2.9564,-0.49403 z m 110.4739,4.49948 0.8247,9.96373 -2.9874,0.24699 -0.8242,-9.96321 z m -74.8167,0.0465 2.987,0.24805 -0.8264,9.96323 -2.9874,-0.24805 z m 35.9105,1.58597 h 2.9978 v 9.99733 h -2.9977 z m 25.4682,9.80921 0.048,0.99788 -9.988,0.47646 -0.048,-0.9984 z m -46.8002,0.0398 9.9932,0.34983 -0.035,0.99891 -9.9938,-0.34983 z" />
  </g>
</svg>
