<?xml version="1.0" encoding="UTF-8" standalone="no"?>
<svg
   xmlns:dc="http://purl.org/dc/elements/1.1/"
   xmlns:cc="http://creativecommons.org/ns#"
   xmlns:rdf="http://www.w3.org/1999/02/22-rdf-syntax-ns#"
   xmlns:svg="http://www.w3.org/2000/svg"
   xmlns="http://www.w3.org/2000/svg"
   xmlns:sodipodi="http://sodipodi.sourceforge.net/DTD/sodipodi-0.dtd"
   xmlns:inkscape="http://www.inkscape.org/namespaces/inkscape"
   width="120cm"
   height="70cm"
   viewBox="0 0 1200 699.99998"
   version="1.1"
   id="svg1581"
   inkscape:version="1.0.2-2 (e86c870879, 2021-01-15)"
   sodipodi:docname="Impression finale - Structure.svg">
  <defs
     id="defs1575" />
  <sodipodi:namedview
     id="base"
     pagecolor="#ffffff"
     bordercolor="#666666"
     borderopacity="1.0"
     inkscape:pageopacity="0.0"
     inkscape:pageshadow="2"
     inkscape:zoom="0.17095102"
     inkscape:cx="2439.0116"
     inkscape:cy="1854.7644"
     inkscape:document-units="mm"
     inkscape:current-layer="layer1"
     inkscape:document-rotation="0"
     showgrid="false"
     units="cm"
     inkscape:window-width="1842"
     inkscape:window-height="1051"
     inkscape:window-x="-9"
     inkscape:window-y="-9"
     inkscape:window-maximized="1"
     showguides="true"
     inkscape:guide-bbox="true">
    <sodipodi:guide
       position="707.52911,741.03997"
       orientation="0,-1"
       id="guide1445" />
  </sodipodi:namedview>
  <metadata
     id="metadata1578">
    <rdf:RDF>
      <cc:Work
         rdf:about="">
        <dc:format>image/svg+xml</dc:format>
        <dc:type
           rdf:resource="http://purl.org/dc/dcmitype/StillImage" />
        <dc:title />
      </cc:Work>
    </rdf:RDF>
  </metadata>
  <g
     inkscape:label="Calque 1"
     inkscape:groupmode="layer"
     id="layer1">
    <path
       id="rect1828"
       style="fill:#de8787;fill-opacity:0;stroke:#0000ff;stroke-width:0.001;stroke-miterlimit:4;stroke-dasharray:none;stroke-opacity:1"
       d="m 827.98352,390.07131 v 9.99577 h 2.88147 v 30.00386 h 29.93721 v -20.07992 h 3.06284 v 20.07992 h 29.93721 v -20.07992 h 3.06284 v 20.07992 h 29.93721 v -20.07992 h 3.06287 v 20.07992 h 29.93718 v -20.07992 h 3.06287 v 20.07992 h 29.93718 v -20.07992 h 3.06217 v 20.07992 h 29.93793 v -20.07992 h 3.0623 v 20.07992 h 29.9377 v -20.07992 h 3.0624 v 20.07992 h 29.9377 v -20.07992 h 3.0623 v 20.07992 h 29.9377 v -20.07992 h 3.0624 v 20.07992 h 29.9372 v -20.07992 h 3.0629 v 20.07992 h 29.9067 v -30.00386 h 2.9956 v -9.99474 h -2.9956 v -10e-4 H 833.10723 Z" />
    <path
       id="rect1828-7"
       style="fill:#000000;fill-opacity:0;stroke:#0000ff;stroke-width:0.001;stroke-miterlimit:4;stroke-dasharray:none;stroke-opacity:1"
       d="m 829.33541,346.89666 v 9.99577 h 2.88147 v 30.00386 h 29.93721 v -20.07992 h 3.06284 v 20.07992 h 29.93721 v -20.07992 h 3.06284 v 20.07992 h 29.93723 v -20.07992 h 3.0629 v 20.07992 h 29.9371 v -20.07992 h 3.0629 v 20.07992 h 29.9372 v -20.07992 h 3.0623 v 20.07992 h 29.93809 v -20.07992 h 3.0623 v 20.07992 h 29.9377 v -20.07992 h 3.0624 v 20.07992 h 29.9377 v -20.07992 h 3.0623 v 20.07992 h 29.9377 v -20.07992 h 3.0624 v 20.07992 h 29.9372 v -20.07992 h 3.0629 v 20.07992 h 29.9067 v -30.00386 h 2.9956 v -9.99474 h -2.9956 v -0.001 H 834.45912 Z" />
    <path
       id="rect1828-7-2"
       style="fill:#000000;fill-opacity:0;stroke:#0000ff;stroke-width:0.001;stroke-miterlimit:4;stroke-dasharray:none;stroke-opacity:1"
       d="m 831.40794,3.0442358 v 9.9957702 h 2.88147 v 30.00386 h 29.93721 v -20.07992 h 3.06284 v 20.07992 h 29.93721 v -20.07992 h 3.06284 v 20.07992 h 29.93723 v -20.07992 h 3.0629 v 20.07992 h 29.9371 v -20.07992 h 3.0629 v 20.07992 h 29.9372 v -20.07992 h 3.0623 v 20.07992 h 29.93806 v -20.07992 h 3.0623 v 20.07992 h 29.9377 v -20.07992 h 3.0624 v 20.07992 h 29.9377 v -20.07992 h 3.0623 v 20.07992 h 29.9377 v -20.07992 h 3.0624 v 20.07992 h 29.9372 v -20.07992 h 3.0629 v 20.07992 h 29.9067 v -30.00386 h 2.9956 V 3.0452658 h -2.9956 v -0.001 H 836.53165 Z" />
    <path
       id="path2817"
       style="fill:#000000;fill-opacity:0;stroke:#0000ff;stroke-width:0.001;stroke-miterlimit:4;stroke-dasharray:none;stroke-opacity:1"
       d="m 831.40794,46.044236 v 9.99577 h 2.88147 v 30.00386 h 29.93721 v -20.07992 h 3.06284 v 20.07992 h 29.93721 v -20.07992 h 3.06284 v 20.07992 h 29.93723 v -20.07992 h 3.0629 v 20.07992 h 29.9371 v -20.07992 h 3.0629 v 20.07992 h 29.9372 v -20.07992 h 3.0623 v 20.07992 h 29.93806 v -20.07992 h 3.0623 v 20.07992 h 29.9377 v -20.07992 h 3.0624 v 20.07992 h 29.9377 v -20.07992 h 3.0623 v 20.07992 h 29.9377 v -20.07992 h 3.0624 v 20.07992 h 29.9372 v -20.07992 h 3.0629 v 20.07992 h 29.9067 v -30.00386 h 2.9956 v -9.99474 h -2.9956 v -10e-4 H 836.53165 Z" />
    <path
       id="path2819"
       style="fill:#000000;fill-opacity:0;stroke:#0000ff;stroke-width:0.001;stroke-miterlimit:4;stroke-dasharray:none;stroke-opacity:1"
       d="m 831.40794,89.044236 v 9.99577 h 2.88147 v 30.003864 h 29.93721 v -20.07992 h 3.06284 v 20.07992 h 29.93721 v -20.07992 h 3.06284 v 20.07992 h 29.93723 v -20.07992 h 3.0629 v 20.07992 h 29.9371 v -20.07992 h 3.0629 v 20.07992 h 29.9372 v -20.07992 h 3.0623 v 20.07992 h 29.93806 v -20.07992 h 3.0623 v 20.07992 h 29.9377 v -20.07992 h 3.0624 v 20.07992 h 29.9377 v -20.07992 h 3.0623 v 20.07992 h 29.9377 v -20.07992 h 3.0624 v 20.07992 h 29.9372 v -20.07992 h 3.0629 v 20.07992 h 29.9067 V 99.040006 h 2.9956 v -9.99474 h -2.9956 v -0.001 H 836.53165 Z" />
    <path
       id="path2821"
       style="fill:#000000;fill-opacity:0;stroke:#0000ff;stroke-width:0.001;stroke-miterlimit:4;stroke-dasharray:none;stroke-opacity:1"
       d="m 831.40794,132.04424 v 9.99577 h 2.88147 v 30.00386 h 29.93721 v -20.07992 h 3.06284 v 20.07992 h 29.93721 v -20.07992 h 3.06284 v 20.07992 h 29.93723 v -20.07992 h 3.0629 v 20.07992 h 29.9371 v -20.07992 h 3.0629 v 20.07992 h 29.9372 v -20.07992 h 3.0623 v 20.07992 h 29.93806 v -20.07992 h 3.0623 v 20.07992 h 29.9377 v -20.07992 h 3.0624 v 20.07992 h 29.9377 v -20.07992 h 3.0623 v 20.07992 h 29.9377 v -20.07992 h 3.0624 v 20.07992 h 29.9372 v -20.07992 h 3.0629 v 20.07992 h 29.9067 v -30.00386 h 2.9956 v -9.99474 h -2.9956 v -10e-4 H 836.53165 Z" />
    <path
       id="path2823"
       style="fill:#000000;fill-opacity:0;stroke:#0000ff;stroke-width:0.001;stroke-miterlimit:4;stroke-dasharray:none;stroke-opacity:1"
       d="m 831.40794,175.04424 v 9.99577 h 2.88147 v 30.00386 h 29.93721 v -20.07992 h 3.06284 v 20.07992 h 29.93721 v -20.07992 h 3.06284 v 20.07992 h 29.93723 v -20.07992 h 3.0629 v 20.07992 h 29.9371 v -20.07992 h 3.0629 v 20.07992 h 29.9372 v -20.07992 h 3.0623 v 20.07992 h 29.93806 v -20.07992 h 3.0623 v 20.07992 h 29.9377 v -20.07992 h 3.0624 v 20.07992 h 29.9377 v -20.07992 h 3.0623 v 20.07992 h 29.9377 v -20.07992 h 3.0624 v 20.07992 h 29.9372 v -20.07992 h 3.0629 v 20.07992 h 29.9067 v -30.00386 h 2.9956 v -9.99474 h -2.9956 v -10e-4 H 836.53165 Z" />
    <path
       id="path2825"
       style="fill:#000000;fill-opacity:0;stroke:#0000ff;stroke-width:0.001;stroke-miterlimit:4;stroke-dasharray:none;stroke-opacity:1"
       d="m 831.40794,218.04424 v 9.99577 h 2.88147 v 30.00386 h 29.93721 v -20.07992 h 3.06284 v 20.07992 h 29.93721 v -20.07992 h 3.06284 v 20.07992 h 29.93723 v -20.07992 h 3.0629 v 20.07992 h 29.9371 v -20.07992 h 3.0629 v 20.07992 h 29.9372 v -20.07992 h 3.0623 v 20.07992 h 29.93806 v -20.07992 h 3.0623 v 20.07992 h 29.9377 v -20.07992 h 3.0624 v 20.07992 h 29.9377 v -20.07992 h 3.0623 v 20.07992 h 29.9377 v -20.07992 h 3.0624 v 20.07992 h 29.9372 v -20.07992 h 3.0629 v 20.07992 h 29.9067 v -30.00386 h 2.9956 v -9.99474 h -2.9956 v -10e-4 H 836.53165 Z" />
    <path
       id="path2827"
       style="fill:#000000;fill-opacity:0;stroke:#0000ff;stroke-width:0.001;stroke-miterlimit:4;stroke-dasharray:none;stroke-opacity:1"
       d="m 831.40794,261.04424 v 9.99577 h 2.88147 v 30.00386 h 29.93721 v -20.07992 h 3.06284 v 20.07992 h 29.93721 v -20.07992 h 3.06284 v 20.07992 h 29.93723 v -20.07992 h 3.0629 v 20.07992 h 29.9371 v -20.07992 h 3.0629 v 20.07992 h 29.9372 v -20.07992 h 3.0623 v 20.07992 h 29.93806 v -20.07992 h 3.0623 v 20.07992 h 29.9377 v -20.07992 h 3.0624 v 20.07992 h 29.9377 v -20.07992 h 3.0623 v 20.07992 h 29.9377 v -20.07992 h 3.0624 v 20.07992 h 29.9372 v -20.07992 h 3.0629 v 20.07992 h 29.9067 v -30.00386 h 2.9956 v -9.99474 h -2.9956 v -0.001 H 836.53165 Z" />
    <path
       id="path2829"
       style="fill:#000000;fill-opacity:0;stroke:#0000ff;stroke-width:0.001;stroke-miterlimit:4;stroke-dasharray:none;stroke-opacity:1"
       d="m 831.40794,304.04424 v 9.99577 h 2.88147 v 30.00386 h 29.93721 v -20.07992 h 3.06284 v 20.07992 h 29.93721 v -20.07992 h 3.06284 v 20.07992 h 29.93723 v -20.07992 h 3.0629 v 20.07992 h 29.9371 v -20.07992 h 3.0629 v 20.07992 h 29.9372 v -20.07992 h 3.0623 v 20.07992 h 29.93806 v -20.07992 h 3.0623 v 20.07992 h 29.9377 v -20.07992 h 3.0624 v 20.07992 h 29.9377 v -20.07992 h 3.0623 v 20.07992 h 29.9377 v -20.07992 h 3.0624 v 20.07992 h 29.9372 v -20.07992 h 3.0629 v 20.07992 h 29.9067 v -30.00386 h 2.9956 v -9.99474 h -2.9956 v -0.001 H 836.53165 Z" />
    <path
       id="path2831"
       style="fill:#de8787;fill-opacity:0;stroke:#0000ff;stroke-width:0.001;stroke-miterlimit:4;stroke-dasharray:none;stroke-opacity:1"
       d="m 827.98352,433.07131 v 9.99577 h 2.88147 v 30.00386 h 29.93721 v -20.07992 h 3.06284 v 20.07992 h 29.93721 v -20.07992 h 3.06284 v 20.07992 h 29.93721 v -20.07992 h 3.06287 v 20.07992 h 29.93718 v -20.07992 h 3.06287 v 20.07992 h 29.93718 v -20.07992 h 3.06217 v 20.07992 h 29.93793 v -20.07992 h 3.0623 v 20.07992 h 29.9377 v -20.07992 h 3.0624 v 20.07992 h 29.9377 v -20.07992 h 3.0623 v 20.07992 h 29.9377 v -20.07992 h 3.0624 v 20.07992 h 29.9372 v -20.07992 h 3.0629 v 20.07992 h 29.9067 v -30.00386 h 2.9956 v -9.99474 h -2.9956 v -10e-4 H 833.10723 Z" />
    <path
       id="path2833"
       style="fill:#de8787;fill-opacity:0;stroke:#0000ff;stroke-width:0.001;stroke-miterlimit:4;stroke-dasharray:none;stroke-opacity:1"
       d="m 827.98352,476.07131 v 9.99577 h 2.88147 v 30.00386 h 29.93721 v -20.07992 h 3.06284 v 20.07992 h 29.93721 v -20.07992 h 3.06284 v 20.07992 h 29.93721 v -20.07992 h 3.06287 v 20.07992 h 29.93718 v -20.07992 h 3.06287 v 20.07992 h 29.93718 v -20.07992 h 3.06217 v 20.07992 h 29.93793 v -20.07992 h 3.0623 v 20.07992 h 29.9377 v -20.07992 h 3.0624 v 20.07992 h 29.9377 v -20.07992 h 3.0623 v 20.07992 h 29.9377 v -20.07992 h 3.0624 v 20.07992 h 29.9372 v -20.07992 h 3.0629 v 20.07992 h 29.9067 v -30.00386 h 2.9956 v -9.99474 h -2.9956 v -10e-4 H 833.10723 Z" />
    <path
       id="path2835"
       style="fill:#de8787;fill-opacity:0;stroke:#0000ff;stroke-width:0.001;stroke-miterlimit:4;stroke-dasharray:none;stroke-opacity:1"
       d="m 827.98352,519.07131 v 9.99577 h 2.88147 v 30.00386 h 29.93721 v -20.07992 h 3.06284 v 20.07992 h 29.93721 v -20.07992 h 3.06284 v 20.07992 h 29.93721 v -20.07992 h 3.06287 v 20.07992 h 29.93718 v -20.07992 h 3.06287 v 20.07992 h 29.93718 v -20.07992 h 3.06217 v 20.07992 h 29.93793 v -20.07992 h 3.0623 v 20.07992 h 29.9377 v -20.07992 h 3.0624 v 20.07992 h 29.9377 v -20.07992 h 3.0623 v 20.07992 h 29.9377 v -20.07992 h 3.0624 v 20.07992 h 29.9372 v -20.07992 h 3.0629 v 20.07992 h 29.9067 v -30.00386 h 2.9956 v -9.99474 h -2.9956 v -0.001 H 833.10723 Z" />
    <path
       id="path2837"
       style="fill:#de8787;fill-opacity:0;stroke:#0000ff;stroke-width:0.001;stroke-miterlimit:4;stroke-dasharray:none;stroke-opacity:1"
       d="m 827.98352,562.07131 v 9.99577 h 2.88147 v 30.00386 h 29.93721 v -20.07992 h 3.06284 v 20.07992 h 29.93721 v -20.07992 h 3.06284 v 20.07992 h 29.93721 v -20.07992 h 3.06287 v 20.07992 h 29.93718 v -20.07992 h 3.06287 v 20.07992 h 29.93718 v -20.07992 h 3.06217 v 20.07992 h 29.93793 v -20.07992 h 3.0623 v 20.07992 h 29.9377 v -20.07992 h 3.0624 v 20.07992 h 29.9377 v -20.07992 h 3.0623 v 20.07992 h 29.9377 v -20.07992 h 3.0624 v 20.07992 h 29.9372 v -20.07992 h 3.0629 v 20.07992 h 29.9067 v -30.00386 h 2.9956 v -9.99474 h -2.9956 v -0.001 H 833.10723 Z" />
    <path
       id="path2839"
       style="fill:#de8787;fill-opacity:0;stroke:#0000ff;stroke-width:0.001;stroke-miterlimit:4;stroke-dasharray:none;stroke-opacity:1"
       d="m 827.98352,605.07131 v 9.99577 h 2.88147 v 30.00386 h 29.93721 v -20.07992 h 3.06284 v 20.07992 h 29.93721 v -20.07992 h 3.06284 v 20.07992 h 29.93721 v -20.07992 h 3.06287 v 20.07992 h 29.93718 v -20.07992 h 3.06287 v 20.07992 h 29.93718 v -20.07992 h 3.06217 v 20.07992 h 29.93793 v -20.07992 h 3.0623 v 20.07992 h 29.9377 v -20.07992 h 3.0624 v 20.07992 h 29.9377 v -20.07992 h 3.0623 v 20.07992 h 29.9377 v -20.07992 h 3.0624 v 20.07992 h 29.9372 v -20.07992 h 3.0629 v 20.07992 h 29.9067 v -30.00386 h 2.9956 v -9.99474 h -2.9956 v -0.001 H 833.10723 Z" />
    <path
       id="path2841"
       style="fill:#de8787;fill-opacity:0;stroke:#0000ff;stroke-width:0.001;stroke-miterlimit:4;stroke-dasharray:none;stroke-opacity:1"
       d="m 827.98352,648.07131 v 9.99577 h 2.88147 v 30.00386 h 29.93721 v -20.07992 h 3.06284 v 20.07992 h 29.93721 v -20.07992 h 3.06284 v 20.07992 h 29.93721 v -20.07992 h 3.06287 v 20.07992 h 29.93718 v -20.07992 h 3.06287 v 20.07992 h 29.93718 v -20.07992 h 3.06217 v 20.07992 h 29.93793 v -20.07992 h 3.0623 v 20.07992 h 29.9377 v -20.07992 h 3.0624 v 20.07992 h 29.9377 v -20.07992 h 3.0623 v 20.07992 h 29.9377 v -20.07992 h 3.0624 v 20.07992 h 29.9372 v -20.07992 h 3.0629 v 20.07992 h 29.9067 v -30.00386 h 2.9956 v -9.99474 h -2.9956 v -0.001 H 833.10723 Z" />
    <path
       id="path2843"
       style="fill:#de8787;fill-opacity:0;stroke:#0000ff;stroke-width:0.001;stroke-miterlimit:4;stroke-dasharray:none;stroke-opacity:1"
       d="m 457.43711,648.07131 v 9.99577 h 2.88147 v 30.00386 h 29.93721 v -20.07992 h 3.06284 v 20.07992 h 29.93721 v -20.07992 h 3.06284 v 20.07992 h 29.93721 v -20.07992 h 3.06287 v 20.07992 h 29.93718 v -20.07992 h 3.06287 v 20.07992 h 29.93718 v -20.07992 h 3.06217 v 20.07992 h 29.93793 v -20.07992 h 3.0623 v 20.07992 h 29.9377 v -20.07992 h 3.0624 v 20.07992 h 29.9377 v -20.07992 h 3.0623 v 20.07992 h 29.9377 v -20.07992 h 3.0624 v 20.07992 h 29.9372 v -20.07992 h 3.0629 v 20.07992 h 29.9067 v -30.00386 h 2.9956 v -9.99474 h -2.9956 v -0.001 H 462.56082 Z" />
    <path
       id="path2845"
       style="fill:#de8787;fill-opacity:0;stroke:#0000ff;stroke-width:0.001;stroke-miterlimit:4;stroke-dasharray:none;stroke-opacity:1"
       d="m 75.149964,648.19863 v 9.99577 h 2.88147 v 30.00386 h 29.937216 v -20.07992 h 3.06284 v 20.07992 h 29.93721 v -20.07992 h 3.06284 v 20.07992 h 29.93721 v -20.07992 h 3.06287 v 20.07992 h 29.93718 v -20.07992 h 3.06287 v 20.07992 h 29.93718 v -20.07992 h 3.06217 v 20.07992 h 29.93793 v -20.07992 h 3.0623 v 20.07992 h 29.9377 v -20.07992 h 3.0624 v 20.07992 h 29.9377 v -20.07992 h 3.0623 v 20.07992 h 29.9377 v -20.07992 h 3.0624 v 20.07992 h 29.9372 v -20.07992 h 3.0629 v 20.07992 h 29.9067 V 658.1944 h 2.9956 v -9.99474 h -2.9956 v -10e-4 H 80.273674 Z" />
    <path
       id="path2857"
       style="fill:none;fill-opacity:0.105882;stroke:#0000ff;stroke-width:0.001;stroke-miterlimit:4;stroke-dasharray:none;stroke-opacity:1"
       d="m 678.66733,10.517967 -14.3328,14.87497 -2.1175,-2.03548 -14.3506,14.89337 c 0.3476,0.33064 0.6952,0.66128 1.0416,0.99348 1.4556,1.39908 2.9001,2.80962 4.3333,4.23154 l 3.9545,-3.84843 13.5985,14.10134 -3.9991,3.89297 c 2.9883,3.28261 5.9198,6.61697 8.793,10.0016 l 4.3528,-3.60659 12.3492,15.21616 -4.4028,3.64804 c 2.6963,3.524841 5.3318,7.09656 7.9056,10.713682 l 4.7366,-3.324242 11.0152,16.227063 -4.7912,3.36221 c 2.386,3.74236 4.7079,7.52645 6.9647,11.35076 l 5.1025,-3.00152 9.6061,17.1269 -5.1607,3.03589 c 2.0601,3.934 4.0532,7.9044 5.9784,11.90945 l 5.4458,-2.6397 8.1311,17.90981 -5.5063,2.66905 c 1.7208,4.09817 3.3719,8.22719 4.9528,12.38518 l 5.7613,-2.23877 6.6005,18.57131 -5.8225,2.26283 c 1.3703,4.23435 2.6691,8.49355 3.8959,12.776 l 6.043,-1.80135 5.0254,19.10474 -6.1058,1.8196 c 1.0115,4.34114 1.9499,8.70116 2.8149,13.07843 l 6.2882,-1.32879 3.4151,19.50815 -6.3499,1.34202 c 0.6463,4.41857 1.2185,8.84987 1.7164,13.29234 l 6.4907,-0.82527 1.7821,19.77792 -6.5512,0.83297 c 0.2776,4.46531 0.4806,8.93741 0.6091,13.41461 l 6.6472,-0.29403 0.1365,19.91312 -6.7047,0.29671 c -0.093,4.4822 -0.2598,8.96497 -0.5012,13.44669 l 6.7537,0.26008 -1.5094,19.9121 -6.8085,-0.26239 c -0.4614,4.46834 -0.9966,8.93124 -1.6055,13.38687 l 6.8067,0.83247 -3.1452,19.77471 -6.8569,-0.83856 c -0.8263,4.42465 -1.7256,8.83777 -2.6974,13.23754 l 6.8044,1.41682 -4.7597,19.50299 -6.8499,-1.42651 c -1.1851,4.35104 -2.4419,8.68448 -3.7697,12.99853 l 6.7448,2.00783 -6.3418,19.09704 -6.7841,-2.01942 c -1.5355,4.24788 -3.1405,8.47242 -4.8144,12.67163 l 6.6257,2.59912 -7.8804,18.56134 -6.6594,-2.61213 c -1.8749,4.11657 -3.8168,8.20422 -5.825,12.26109 l 6.448,3.18297 -9.3655,17.89857 -6.4754,-3.19683 c -2.2011,3.95782 -4.4663,7.88113 -6.7949,11.76825 l 6.2107,3.75416 -10.7858,17.11348 -6.2335,-3.76711 c -2.5122,3.77233 -5.0851,7.50516 -7.7182,11.19625 l 5.9179,4.3053 -12.1335,16.21175 -5.933,-4.31618 c -2.8065,3.56178 -5.67,7.07899 -8.5898,10.54997 l 5.5689,4.82961 -13.3968,15.19905 -5.5792,-4.83823 c -1.9142,2.07033 -3.852,4.11874 -5.8084,6.14941 -0.5214,0.53982 -1.042,1.08018 -1.5689,1.61419 l 28.8138,27.69155 c 0.5212,-0.5396 1.0489,-1.073 1.5689,-1.6142 8.3337,-8.6491 16.3309,-17.6148 23.9725,-26.87631 l -15.3935,-12.45039 1.9652,-2.39623 15.3926,12.4503 c 7.2177,-8.86669 14.106,-17.99261 20.6497,-27.35795 l -16.4138,-11.10236 1.7659,-2.54332 16.4129,11.10151 c 6.481,-9.40778 12.6115,-19.04579 18.3777,-28.89352 l -17.3236,-9.67831 1.5545,-2.67371 17.3227,9.67816 c 5.7001,-9.88514 11.0307,-19.97018 15.98,-30.2334 l -18.1158,-8.18801 1.3326,-2.78572 18.1152,8.18822 c 4.88,-10.29421 9.3741,-20.75669 13.4726,-31.36478 l -18.7862,-6.64284 1.1022,-2.87815 18.7853,6.642 c 4.0268,-10.63375 7.6541,-21.4027 10.8739,-32.28388 l -19.3291,-5.05001 0.863,-2.95182 19.329,5.04995 c 3.146,-10.90048 5.8815,-21.90242 8.2008,-32.98194 l -19.7427,-3.42303 0.6194,-3.00443 19.7412,3.42318 c 2.2439,-11.09303 4.0693,-22.25294 5.4721,-33.45556 l -20.0216,-1.77144 0.37,-3.03745 20.0209,1.77144 c 1.3261,-11.20969 2.2283,-22.45121 2.7048,-33.70041 l -20.1648,-0.10626 0.119,-3.04834 20.1647,0.10613 c 0.3993,-11.25029 0.3725,-22.49695 -0.081,-33.71619 l -20.1716,1.56202 -0.1333,-3.0398 20.1716,-1.56186 c -0.5304,-11.21344 -1.4866,-22.38826 -2.8665,-33.50052 l -20.0413,3.22037 -0.3838,-3.00944 20.0407,-3.2208 c -1.4561,-11.10024 -3.3346,-22.127 -5.6315,-33.05654 l -19.7749,4.85932 -0.6322,-2.95932 19.7745,-4.85967 c -2.3723,-10.91136 -5.1608,-21.71488 -8.3593,-32.38718 l -19.3734,6.46719 -0.8765,-2.88874 19.3733,-6.46734 c -3.2724,-10.64811 -6.9519,-21.15458 -11.0304,-31.49687 l -18.8398,8.03337 -1.1143,-2.79823 18.8393,-8.03373 c -4.15,-10.31209 -8.6953,-20.4498 -13.6256,-30.3913 l -18.1771,9.54721 -1.3451,-2.68891 18.1774,-9.54686 c -5,-9.90558 -10.3803,-19.60511 -16.1295,-29.07782 l -17.3892,10.99752 -1.5666,-2.56106 17.3892,-10.997528 c -5.8151,-9.431405 -11.9935,-18.626705 -18.5217,-27.566165 l -16.482,12.37614 -1.7772,-2.4161 16.4819,-12.37537 c -6.591,-8.89258 -13.5256,-17.52054 -20.7887,-25.86517 l -15.4609,13.67069 -1.9756,-2.25348 15.4609,-13.6707 c -7.322,-8.2933 -14.9655,-16.29528 -22.9138,-23.98854 z"
       inkscape:transform-center-x="-368.21661"
       inkscape:transform-center-y="1.2018632" />
    <path
       id="path2859"
       style="fill:none;fill-opacity:0.105882;stroke:#0000ff;stroke-width:0.001;stroke-miterlimit:4;stroke-dasharray:none;stroke-opacity:1"
       d="m 619.2703,10.517937 -14.33277,14.87498 -2.1175,-2.03548 -14.35058,14.89337 c 0.3476,0.33064 0.69522,0.66128 1.04156,0.99348 1.45565,1.39908 2.90013,2.80962 4.33337,4.23154 l 3.95448,-3.84842 13.59844,14.10135 -3.99904,3.89297 c 2.9883,3.28259 5.91975,6.61695 8.79304,10.00162 l 4.35274,-3.60659 12.34929,15.21615 -4.4028,3.64804 c 2.6962,3.524841 5.3318,7.09657 7.9055,10.713692 l 4.7366,-3.324232 11.0152,16.227053 -4.7912,3.3622 c 2.386,3.74236 4.708,7.52646 6.9648,11.35077 l 5.1025,-3.00152 9.6061,17.1269 -5.1608,3.03589 c 2.0602,3.934 4.0532,7.9044 5.9784,11.90944 l 5.4458,-2.63969 8.1311,17.90982 -5.5063,2.66904 c 1.7208,4.09817 3.3719,8.22718 4.9528,12.38518 l 5.7613,-2.23877 6.6006,18.5713 -5.8226,2.26283 c 1.3703,4.23436 2.6692,8.49355 3.8959,12.776 l 6.043,-1.80136 5.0254,19.10477 -6.1058,1.81958 c 1.0116,4.34115 1.9499,8.70116 2.815,13.07845 l 6.2881,-1.32881 3.4151,19.50815 -6.3499,1.34203 c 0.6463,4.41858 1.2185,8.84986 1.7165,13.29234 l 6.4906,-0.82528 1.7822,19.77792 -6.5512,0.83299 c 0.2775,4.46531 0.4805,8.93739 0.609,13.41459 l 6.6472,-0.29401 0.1365,19.9131 -6.7046,0.2967 c -0.093,4.48222 -0.2598,8.96499 -0.5013,13.44669 l 6.7537,0.26009 -1.5094,19.91213 -6.8085,-0.26241 c -0.4613,4.46833 -0.9966,8.93125 -1.6055,13.38687 l 6.8067,0.83248 -3.1452,19.77473 -6.8569,-0.83862 c -0.8263,4.42464 -1.7256,8.83778 -2.6974,13.23753 l 6.8044,1.41683 -4.7597,19.50299 -6.8499,-1.42652 c -1.1851,4.35104 -2.442,8.68446 -3.7698,12.99851 l 6.7449,2.00785 -6.3418,19.09703 -6.7841,-2.01941 c -1.5355,4.24786 -3.1405,8.4724 -4.8144,12.67163 l 6.6257,2.59908 -7.8804,18.56134 -6.6595,-2.61213 c -1.8749,4.11657 -3.8167,8.20421 -5.8249,12.26116 l 6.4479,3.18291 -9.3654,17.89864 -6.4754,-3.19683 c -2.2011,3.95782 -4.4663,7.88106 -6.795,11.76817 l 6.2107,3.75417 -10.7857,17.11354 -6.2334,-3.76711 c -2.5123,3.77233 -5.0853,7.50509 -7.7183,11.19625 l 5.9178,4.30522 -12.1334,16.21183 -5.93294,-4.3161 c -2.80653,3.56171 -5.67008,7.07892 -8.58977,10.54987 l 5.56877,4.82966 -13.39672,15.19899 -5.5792,-4.83819 c -1.91419,2.07033 -3.85201,4.11874 -5.80842,6.14939 -0.52144,0.53983 -1.04199,1.08018 -1.56894,1.6142 l 28.81381,27.69154 c 0.52119,-0.5396 1.04891,-1.073 1.56893,-1.6142 8.33368,-8.6491 16.33098,-17.6148 23.97248,-26.8763 l -15.3935,-12.45039 1.9652,-2.39622 15.3926,12.4503 c 7.2177,-8.86669 14.1061,-17.99262 20.6498,-27.35796 l -16.4139,-11.10236 1.7659,-2.54332 16.4129,11.10151 c 6.481,-9.40777 12.6115,-19.04578 18.3777,-28.89352 l -17.3235,-9.67831 1.5545,-2.67372 17.3227,9.67817 c 5.7,-9.88514 11.0306,-19.97018 15.9799,-30.23341 l -18.1158,-8.18801 1.3327,-2.78572 18.1151,8.18823 c 4.88,-10.2942 9.3741,-20.75669 13.4726,-31.36477 l -18.7861,-6.64285 1.1021,-2.87814 18.7853,6.642 c 4.0268,-10.63375 7.6541,-21.40271 10.874,-32.28388 l -19.3292,-5.04999 0.863,-2.95183 19.329,5.04993 c 3.146,-10.90048 5.8815,-21.90242 8.2008,-32.98191 l -19.7426,-3.42303 0.6193,-3.00443 19.7412,3.42317 c 2.2439,-11.09302 4.0693,-22.25293 5.4721,-33.45555 l -20.0215,-1.77144 0.3699,-3.03744 20.0209,1.77144 c 1.3262,-11.20969 2.2284,-22.4512 2.7048,-33.70043 l -20.1647,-0.10627 0.1189,-3.04834 20.1648,0.10615 c 0.3993,-11.2503 0.3724,-22.49697 -0.081,-33.7162 l -20.1717,1.56199 -0.1333,-3.03978 20.1717,-1.56185 c -0.5305,-11.21345 -1.4866,-22.38828 -2.8666,-33.50052 l -20.0413,3.22036 -0.3838,-3.00944 20.0407,-3.22082 c -1.4561,-11.10022 -3.3346,-22.12698 -5.6315,-33.05652 l -19.7749,4.85931 -0.6322,-2.9593 19.7745,-4.85968 c -2.3723,-10.91136 -5.1608,-21.71489 -8.3592,-32.38717 l -19.3735,6.46717 -0.8765,-2.88873 19.3734,-6.46734 c -3.2725,-10.64811 -6.952,-21.15457 -11.0304,-31.49687 l -18.8398,8.03337 -1.1143,-2.79822 18.8393,-8.03375 c -4.1501,-10.31209 -8.6953,-20.44981 -13.6257,-30.39128 l -18.177,9.5472 -1.3452,-2.68891 18.1774,-9.54686 c -4.9999,-9.90558 -10.3803,-19.60512 -16.1294,-29.07783 l -17.3893,10.99753 -1.5666,-2.56106 17.3893,-10.997518 c -5.8152,-9.431425 -11.9936,-18.626715 -18.5218,-27.566185 l -16.482,12.37615 -1.7772,-2.41611 16.482,-12.37536 c -6.5911,-8.89259 -13.5257,-17.52055 -20.7888,-25.86522 l -15.4609,13.67072 -1.9756,-2.25349 15.4609,-13.67072 c -7.322,-8.29329 -14.9654,-16.29525 -22.9138,-23.9885 z"
       inkscape:transform-center-x="-368.2166"
       inkscape:transform-center-y="1.20188" />
    <path
       id="path2861"
       style="fill:none;fill-opacity:0.105882;stroke:#0000ff;stroke-width:0.001;stroke-miterlimit:4;stroke-dasharray:none;stroke-opacity:1"
       d="m 559.87333,10.517937 -14.33277,14.87498 -2.1175,-2.03548 -14.35059,14.89336 c 0.34761,0.33065 0.69522,0.66128 1.04156,0.99348 1.45565,1.39908 2.90013,2.80962 4.33337,4.23155 l 3.95449,-3.84842 13.59843,14.10134 -3.99903,3.89297 c 2.98829,3.2826 5.91976,6.61695 8.79301,10.0016 l 4.35273,-3.60661 12.34927,15.21616 -4.40282,3.64804 c 2.69629,3.524841 5.33181,7.09656 7.90555,10.713672 l 4.73661,-3.324232 11.0152,16.227093 -4.79114,3.36222 c 2.38599,3.74236 4.70792,7.52645 6.96472,11.35076 l 5.10249,-3.00152 9.60612,17.12691 -5.16076,3.03589 c 2.06016,3.93399 4.05321,7.9044 5.97838,11.90945 l 5.44578,-2.6397 8.1311,17.90981 -5.50625,2.66905 c 1.72074,4.09816 3.37191,8.22717 4.95275,12.38517 l 5.7613,-2.23877 6.6006,18.57131 -5.8225,2.26283 c 1.3703,4.23435 2.6691,8.49355 3.8958,12.776 l 6.043,-1.80135 5.0254,19.10475 -6.1057,1.8196 c 1.0115,4.34114 1.9498,8.70116 2.8149,13.07842 l 6.2881,-1.32878 3.4151,19.50814 -6.3498,1.34202 c 0.6463,4.41857 1.2184,8.84988 1.7164,13.29235 l 6.4906,-0.82528 1.7822,19.77793 -6.5512,0.83296 c 0.2775,4.46531 0.4805,8.93741 0.609,13.4146 l 6.6472,-0.29402 0.1365,19.91312 -6.7046,0.2967 c -0.093,4.48222 -0.2598,8.96498 -0.5013,13.4467 l 6.7537,0.26007 -1.5094,19.91213 -6.8085,-0.26241 c -0.4613,4.46836 -0.9965,8.93126 -1.6055,13.38689 l 6.8067,0.83246 -3.1451,19.77474 -6.857,-0.83862 c -0.8263,4.42465 -1.7255,8.83776 -2.6974,13.23752 l 6.8044,1.41683 -4.7596,19.50299 -6.8499,-1.42651 c -1.1852,4.35104 -2.442,8.68448 -3.7698,12.99853 l 6.7449,2.00783 -6.3419,19.09706 -6.784,-2.01944 c -1.53559,4.24788 -3.14057,8.47241 -4.81445,12.67165 l 6.62565,2.59911 -7.88034,18.56133 -6.65945,-2.61212 c -1.8749,4.11657 -3.81676,8.2042 -5.82493,12.26116 l 6.44789,3.18289 -9.36544,17.89861 -6.47537,-3.1968 c -2.20109,3.95781 -4.46631,7.88106 -6.79496,11.76816 l 6.21066,3.75417 -10.78567,17.11357 -6.23346,-3.76715 c -2.51229,3.77235 -5.08522,7.50508 -7.71831,11.19628 l 5.91783,4.30524 -12.13332,16.21177 -5.93306,-4.31617 c -2.80648,3.5618 -5.6701,7.07894 -8.58973,10.54997 l 5.56877,4.82966 -13.39673,15.19899 -5.57917,-4.83819 c -1.9142,2.07033 -3.85202,4.11872 -5.80842,6.14938 -0.52145,0.53984 -1.042,1.08019 -1.56895,1.61421 l 28.81379,27.69151 c 0.52118,-0.5396 1.0489,-1.073 1.56892,-1.6142 8.33368,-8.6491 16.33096,-17.6148 23.97249,-26.8763 l -15.39349,-12.4504 1.96517,-2.39622 15.3926,12.4503 c 7.21775,-8.86673 14.10603,-17.99258 20.64976,-27.35795 l -16.41384,-11.10237 1.7659,-2.54329 16.4129,11.10148 c 6.48104,-9.40776 12.61152,-19.04577 18.37766,-28.8935 l -17.3235,-9.67829 1.55452,-2.67372 17.32268,9.67815 c 5.7,-9.88514 11.0306,-19.97018 15.98,-30.23341 l -18.1158,-8.18798 1.3326,-2.78572 18.1151,8.1882 c 4.8801,-10.29421 9.3742,-20.75667 13.4726,-31.36476 l -18.7861,-6.64283 1.1022,-2.87813 18.7853,6.64198 c 4.0268,-10.63376 7.6541,-21.40271 10.8739,-32.28386 l -19.3292,-5.05002 0.8631,-2.95182 19.3289,5.04995 c 3.1461,-10.90049 5.8815,-21.90243 8.2009,-32.98194 l -19.7427,-3.42303 0.6194,-3.00443 19.7412,3.42318 c 2.2439,-11.09302 4.0693,-22.25294 5.4721,-33.45556 l -20.0216,-1.77144 0.37,-3.03745 20.0208,1.77144 c 1.3262,-11.20969 2.2284,-22.4512 2.7049,-33.70042 l -20.1648,-0.10628 0.1189,-3.04834 20.1648,0.10614 c 0.3993,-11.25028 0.3724,-22.49696 -0.081,-33.7162 l -20.1716,1.56199 -0.1333,-3.03978 20.1716,-1.56185 c -0.5305,-11.21344 -1.4866,-22.38827 -2.8665,-33.50052 l -20.0413,3.22037 -0.3839,-3.00944 20.0408,-3.22083 c -1.4562,-11.10022 -3.3347,-22.12697 -5.6316,-33.05651 l -19.7748,4.85931 -0.6323,-2.95931 19.7746,-4.85968 c -2.3724,-10.91135 -5.1608,-21.71488 -8.3593,-32.38718 l -19.3735,6.46718 -0.8764,-2.88873 19.3733,-6.46733 c -3.2724,-10.64811 -6.9519,-21.15459 -11.0304,-31.49688 l -18.8398,8.03337 -1.1143,-2.79823 18.8393,-8.03373 c -4.1501,-10.31209 -8.6953,-20.44981 -13.6257,-30.3913 l -18.177,9.54722 -1.3451,-2.68893 18.1774,-9.54685 c -5,-9.90557 -10.3804,-19.60511 -16.1295,-29.07782 l -17.38924,10.99753 -1.5666,-2.56107 17.38924,-10.997518 C 620.03566,83.175017 613.85731,73.979747 607.32906,65.040237 l -16.48202,12.37613 -1.77718,-2.4161 16.48195,-12.37537 c -6.59078,-8.89257 -13.52538,-17.52055 -20.78842,-25.86517 l -15.46096,13.6707 -1.9756,-2.25347 15.46096,-13.67071 c -7.322,-8.2933 -14.96548,-16.29527 -22.91386,-23.98852 z"
       inkscape:transform-center-x="-368.21659"
       inkscape:transform-center-y="1.2018662" />
    <path
       id="path2863"
       style="fill:none;fill-opacity:0.105882;stroke:#0000ff;stroke-width:0.001;stroke-miterlimit:4;stroke-dasharray:none;stroke-opacity:1"
       d="m 500.47636,10.517937 -14.33277,14.87498 -2.11751,-2.03548 -14.35059,14.89338 c 0.34761,0.33064 0.69522,0.66128 1.04156,0.99348 1.45565,1.39908 2.90012,2.80961 4.33337,4.23154 l 3.95448,-3.84842 13.59845,14.10134 -3.99905,3.89297 c 2.98831,3.2826 5.91976,6.61697 8.79302,10.0016 l 4.35273,-3.60659 12.34926,15.21615 -4.4028,3.64803 c 2.69629,3.524851 5.3318,7.09657 7.90553,10.713672 l 4.73663,-3.324232 11.01517,16.227053 -4.79114,3.36224 c 2.38599,3.74236 4.70791,7.52645 6.96472,11.35075 l 5.10248,-3.00152 9.60615,17.12694 -5.16079,3.03586 c 2.0602,3.93402 4.05324,7.90442 5.97842,11.90948 l 5.44578,-2.6397 8.13109,17.90981 -5.50623,2.66906 c 1.72073,4.09816 3.3719,8.22716 4.95278,12.38517 l 5.76128,-2.23877 6.60057,18.5713 -5.82252,2.26284 c 1.37029,4.23435 2.66911,8.49354 3.89587,12.77599 l 6.043,-1.80135 5.02541,19.10475 -6.1058,1.8196 c 1.01153,4.34115 1.94985,8.70116 2.81493,13.07843 l 6.28815,-1.32879 3.41512,19.50814 -6.34988,1.34203 c 0.64628,4.41857 1.21848,8.84986 1.71641,13.29235 l 6.49061,-0.82528 1.7822,19.77792 -6.55122,0.83297 c 0.27755,4.46531 0.48056,8.93741 0.60904,13.41459 l 6.64723,-0.29401 0.13647,19.91311 -6.70464,0.29671 c -0.0926,4.4822 -0.25979,8.96498 -0.50126,13.44669 l 6.75372,0.26009 -1.5094,19.91213 -6.80851,-0.26241 c -0.46132,4.46834 -0.99654,8.93123 -1.6055,13.38687 l 6.80668,0.83246 -3.14514,19.77474 -6.85695,-0.83862 c -0.82633,4.42464 -1.72554,8.83776 -2.6974,13.23753 l 6.80442,1.41683 -4.75968,19.503 -6.84989,-1.42652 c -1.18518,4.35104 -2.44198,8.68447 -3.76979,12.99853 l 6.74487,2.00783 -6.34182,19.09704 -6.78406,-2.01942 c -1.53556,4.24787 -3.14054,8.47242 -4.8144,12.67163 l 6.62566,2.59912 -7.88035,18.56134 -6.65947,-2.61212 c -1.87489,4.11656 -3.81675,8.2042 -5.82492,12.26117 l 6.44788,3.18289 -9.36538,17.8986 -6.47544,-3.1968 c -2.20105,3.9578 -4.46632,7.88108 -6.79492,11.76818 l 6.21065,3.75416 -10.78566,17.11358 -6.23347,-3.76714 c -2.51229,3.77233 -5.08522,7.50506 -7.71831,11.19627 l 5.91783,4.30523 -12.13332,16.21177 -5.93306,-4.31617 c -2.80649,3.56182 -5.67011,7.07895 -8.58973,10.54997 l 5.56877,4.82966 -13.39672,15.199 -5.57919,-4.83821 c -1.91422,2.07035 -3.85203,4.11877 -5.80845,6.14944 -0.52146,0.53984 -1.04199,1.08017 -1.56896,1.61421 l 28.81381,27.69153 c 0.52119,-0.5396 1.04891,-1.073 1.56893,-1.6142 8.33371,-8.6491 16.33099,-17.6148 23.97251,-26.87634 l -15.39346,-12.4504 1.96517,-2.39622 15.39257,12.45028 c 7.21777,-8.86672 14.10605,-17.99257 20.64978,-27.35795 l -16.41384,-11.10234 1.7659,-2.54329 16.41289,11.10145 c 6.48106,-9.40778 12.61151,-19.04572 18.37771,-28.89349 l -17.32357,-9.67827 1.55457,-2.67379 17.32266,9.6782 c 5.70005,-9.88513 11.03064,-19.97016 15.97998,-30.23341 l -18.11579,-8.18801 1.33259,-2.78572 18.11517,8.18823 c 4.88003,-10.29421 9.37411,-20.7567 13.47257,-31.36478 l -18.78612,-6.64285 1.10215,-2.87814 18.78529,6.64201 c 4.02684,-10.63376 7.65416,-21.40272 10.87396,-32.28388 l -19.32919,-5.05002 0.86303,-2.95182 19.32897,5.04995 c 3.14606,-10.90048 5.88151,-21.90242 8.20082,-32.98194 l -19.74264,-3.42303 0.61936,-3.00442 19.74122,3.42317 c 2.24387,-11.09303 4.06927,-22.25293 5.47207,-33.45556 l -20.02157,-1.77144 0.36996,-3.03745 20.02091,1.77145 c 1.3261,-11.2097 2.2283,-22.45121 2.7048,-33.70042 l -20.16479,-0.10629 0.11894,-3.04834 20.16475,0.10614 c 0.3993,-11.25027 0.3725,-22.49695 -0.081,-33.7162 l -20.1716,1.56201 -0.13329,-3.03979 20.17159,-1.56186 c -0.5304,-11.21343 -1.4866,-22.38827 -2.8665,-33.50053 l -20.04131,3.22037 -0.38383,-3.00944 20.04074,-3.22081 c -1.4561,-11.10023 -3.33463,-22.12697 -5.63152,-33.05652 l -19.77489,4.85932 -0.63221,-2.95932 19.77452,-4.85968 c -2.37234,-10.91135 -5.16083,-21.71487 -8.35928,-32.38716 l -19.37345,6.46719 -0.87646,-2.88876 19.3733,-6.46732 c -3.2724,-10.64813 -6.95191,-21.15458 -11.03036,-31.49689 l -18.8398,8.03337 -1.11434,-2.79822 18.83932,-8.03374 c -4.1501,-10.31207 -8.69531,-20.44979 -13.62567,-30.39128 l -18.17702,9.5472 -1.34513,-2.68891 18.17737,-9.54687 c -4.99994,-9.90557 -10.38035,-19.60513 -16.1295,-29.07787 l -17.38924,10.99753 -1.5666,-2.56107 17.38924,-10.997518 C 560.63865,83.175007 554.46029,73.979707 547.93208,65.040267 l -16.48203,12.37612 -1.77716,-2.4161 16.48194,-12.37537 c -6.59108,-8.89257 -13.52568,-17.52055 -20.78871,-25.86517 l -15.46096,13.67071 -1.9756,-2.25349 15.46096,-13.67071 c -7.32199,-8.29331 -14.96547,-16.29528 -22.91383,-23.98852 z"
       inkscape:transform-center-x="-368.21661"
       inkscape:transform-center-y="1.201896" />
    <path
       id="path2865"
       style="fill:none;fill-opacity:0.105882;stroke:#0000ff;stroke-width:0.001;stroke-miterlimit:4;stroke-dasharray:none;stroke-opacity:1"
       d="m 441.07939,10.517937 -14.33277,14.87498 -2.11751,-2.03548 -14.35059,14.89338 c 0.34761,0.33064 0.69522,0.66128 1.04156,0.99348 1.45565,1.39908 2.90013,2.80961 4.33337,4.23154 l 3.95448,-3.84842 13.59845,14.10134 -3.99904,3.89297 c 2.9883,3.2826 5.91975,6.61697 8.79301,10.0016 l 4.35273,-3.6066 12.34926,15.21615 -4.40279,3.64804 c 2.69626,3.524841 5.33179,7.09657 7.90553,10.713672 l 4.73661,-3.324232 11.01517,16.227053 -4.79114,3.36223 c 2.386,3.74237 4.70792,7.52646 6.96472,11.35076 l 5.10249,-3.00152 9.60611,17.12691 -5.16075,3.03588 c 2.06016,3.93399 4.0532,7.90441 5.97838,11.90946 l 5.44578,-2.6397 8.1311,17.90981 -5.50624,2.66904 c 1.72075,4.09819 3.37192,8.22719 4.95283,12.38522 l 5.76127,-2.23878 6.60056,18.57131 -5.82252,2.26283 c 1.3703,4.23436 2.66912,8.49353 3.89588,12.77599 l 6.043,-1.80135 5.02542,19.10476 -6.1058,1.81959 c 1.01152,4.34114 1.94985,8.70117 2.81493,13.07843 l 6.28814,-1.32879 3.41512,19.50815 -6.34988,1.34201 c 0.64628,4.41857 1.21847,8.84989 1.71643,13.29235 l 6.49059,-0.82528 1.78221,19.77793 -6.55122,0.83296 c 0.27753,4.46531 0.48055,8.93742 0.60903,13.41461 l 6.64724,-0.29401 0.13646,19.91311 -6.70464,0.29671 c -0.0926,4.4822 -0.25979,8.96496 -0.50126,13.44669 l 6.75371,0.26008 -1.50939,19.91213 -6.80853,-0.26241 c -0.46131,4.46834 -0.99652,8.93124 -1.60548,13.38687 l 6.80668,0.83246 -3.14514,19.77475 -6.85695,-0.83862 c -0.82633,4.42464 -1.72554,8.83776 -2.6974,13.23752 l 6.80443,1.41683 -4.75969,19.50301 -6.84989,-1.42654 c -1.18517,4.35106 -2.44198,8.68449 -3.76978,12.99854 l 6.74488,2.00783 -6.34183,19.09705 -6.78407,-2.01944 c -1.53554,4.24789 -3.14051,8.47239 -4.81443,12.67167 l 6.62571,2.59908 -7.8804,18.56139 -6.6594,-2.61219 c -1.87492,4.11659 -3.81678,8.20424 -5.82492,12.26115 l 6.44785,3.18295 -9.36539,17.89858 -6.47543,-3.19678 c -2.20105,3.95779 -4.46632,7.88108 -6.79493,11.76816 l 6.21066,3.75417 -10.78567,17.11357 -6.23347,-3.76714 c -2.51228,3.77235 -5.08521,7.50507 -7.71831,11.19628 l 5.91784,4.30524 -12.13334,16.21178 -5.93307,-4.31615 c -2.80652,3.56184 -5.67012,7.07895 -8.58975,10.54999 l 5.56877,4.82966 -13.39673,15.199 -5.5792,-4.8382 c -1.91418,2.07032 -3.852,4.11874 -5.80841,6.14938 -0.52144,0.53983 -1.04199,1.08018 -1.56894,1.6142 l 28.81382,27.69154 c 0.52118,-0.5396 1.0489,-1.073 1.56892,-1.6142 8.33368,-8.6491 16.33096,-17.6148 23.97248,-26.87631 l -15.39348,-12.45039 1.96517,-2.39622 15.39259,12.45029 c 7.2178,-8.86676 14.10609,-17.99262 20.64982,-27.35799 l -16.41385,-11.10236 1.7659,-2.54329 16.41291,11.10146 c 6.48106,-9.40777 12.61149,-19.04575 18.37769,-28.8935 l -17.32358,-9.67828 1.55457,-2.67378 17.32266,9.67819 c 5.70008,-9.88514 11.03063,-19.97015 15.98001,-30.23342 l -18.11579,-8.18802 1.33256,-2.78566 18.11519,8.18819 c 4.88004,-10.29423 9.37409,-20.7567 13.47257,-31.36479 l -18.78613,-6.64283 1.10215,-2.87815 18.78529,6.64201 c 4.02684,-10.63377 7.65413,-21.40271 10.87395,-32.28388 l -19.32918,-5.05003 0.86303,-2.9518 19.32897,5.04994 c 3.14606,-10.90048 5.88151,-21.90242 8.20082,-32.98193 l -19.74265,-3.42305 0.61937,-3.00441 19.74122,3.42318 c 2.24386,-11.09302 4.06926,-22.25294 5.47208,-33.45556 l -20.02158,-1.77144 0.36996,-3.03747 20.02088,1.77146 c 1.32617,-11.2097 2.22836,-22.45122 2.70482,-33.70042 l -20.16478,-0.10629 0.11894,-3.04833 20.16478,0.10612 c 0.3993,-11.25026 0.37243,-22.49694 -0.0807,-33.71618 l -20.17163,1.56199 -0.13329,-3.03978 20.17163,-1.56185 c -0.53047,-11.21344 -1.48662,-22.38829 -2.86653,-33.50052 l -20.04132,3.22036 -0.38383,-3.00943 20.04076,-3.22081 c -1.45615,-11.10023 -3.33464,-22.12699 -5.63155,-33.05654 l -19.77486,4.85932 -0.63223,-2.95932 19.77453,-4.85967 c -2.37235,-10.91136 -5.16082,-21.71488 -8.35928,-32.38717 l -19.37347,6.46719 -0.87645,-2.88874 19.37332,-6.46735 c -3.27242,-10.6481 -6.95192,-21.15458 -11.03037,-31.49687 l -18.8398,8.03337 -1.11433,-2.79823 18.8393,-8.03372 c -4.15011,-10.31212 -8.69532,-20.44984 -13.6257,-30.39135 l -18.17702,9.54723 -1.34514,-2.68893 18.17739,-9.54686 c -4.99996,-9.90557 -10.38034,-19.60509 -16.12946,-29.07782 l -17.38924,10.99753 -1.5666,-2.56107 17.38924,-10.997518 C 501.24199,83.174987 495.06364,73.979707 488.53541,65.040257 l -16.48201,12.37613 -1.77717,-2.41612 16.48195,-12.37535 c -6.59108,-8.89257 -13.52568,-17.52055 -20.78872,-25.86519 l -15.46096,13.67071 -1.9756,-2.25347 15.46097,-13.67071 c -7.32203,-8.2933 -14.96549,-16.29528 -22.91386,-23.98852 z"
       inkscape:transform-center-x="-368.21663"
       inkscape:transform-center-y="1.2018886" />
    <path
       id="path2857-1"
       style="fill:none;fill-opacity:0.105882;stroke:#0000ff;stroke-width:0.001;stroke-miterlimit:4;stroke-dasharray:none;stroke-opacity:1"
       d="M 369.2774,8.7408389 354.9446,23.615791 352.8271,21.580313 338.4764,36.47375 c 0.3476,0.330636 0.6952,0.661265 1.0415,0.993457 1.4557,1.399088 2.9002,2.809646 4.3334,4.231524 l 3.9545,-3.848421 13.5985,14.101293 -3.9991,3.89304 c 2.9884,3.282602 5.9199,6.616964 8.793,10.001601 l 4.3528,-3.606555 12.3492,15.21609 -4.4028,3.647999 c 2.6963,3.524852 5.3318,7.096561 7.9057,10.71367 l 4.7365,-3.324222 11.0152,16.226974 -4.7911,3.36223 c 2.3859,3.74231 4.7078,7.52638 6.9646,11.3507 l 5.1025,-3.0015 9.6061,17.12687 -5.1606,3.03591 c 2.06,3.93406 4.0532,7.90438 5.9783,11.9095 l 5.4459,-2.63971 8.1311,17.90982 -5.5064,2.66904 c 1.7209,4.09819 3.372,8.22719 4.9529,12.38526 l 5.7612,-2.23884 6.6006,18.57131 -5.8225,2.26289 c 1.3703,4.23428 2.6691,8.49348 3.8959,12.776 l 6.043,-1.80135 5.0254,19.10474 -6.1058,1.81953 c 1.0115,4.34114 1.9499,8.70117 2.8149,13.07844 l 6.2882,-1.32873 3.415,19.50809 -6.3498,1.34202 c 0.6463,4.41856 1.2184,8.84987 1.7164,13.29233 l 6.4907,-0.82526 1.7821,19.77792 -6.5512,0.83296 c 0.2777,4.46532 0.4806,8.93748 0.6091,13.41461 l 6.6471,-0.29403 0.1367,19.91312 -6.7048,0.29678 c -0.093,4.48207 -0.2598,8.96491 -0.5012,13.44663 l 6.7538,0.26007 -1.5095,19.91205 -6.8085,-0.26233 c -0.4614,4.46834 -0.9966,8.93125 -1.6055,13.3868 l 6.8067,0.83255 -3.1452,19.77473 -6.8569,-0.83862 c -0.8263,4.42472 -1.7256,8.83776 -2.6975,13.23753 l 6.8045,1.4169 -4.7597,19.503 -6.8499,-1.42652 c -1.1852,4.35104 -2.4419,8.6844 -3.7697,12.99846 l 6.7448,2.00789 -6.3417,19.09699 -6.7842,-2.01936 c -1.5356,4.2478 -3.1404,8.47234 -4.8144,12.67164 l 6.6257,2.59911 -7.8804,18.56134 -6.6594,-2.61217 c -1.8749,4.11657 -3.8168,8.20424 -5.825,12.26109 l 6.448,3.18298 -9.3655,17.89857 -6.4754,-3.19683 c -2.2012,3.95777 -4.4663,7.88115 -6.795,11.7682 l 6.2107,3.75414 -10.7857,17.11357 -6.2335,-3.76711 c -2.5122,3.77231 -5.0852,7.50508 -7.7182,11.19622 l 5.9179,4.30531 -12.1335,16.21176 -5.933,-4.31618 c -2.8065,3.56178 -5.67,7.07898 -8.5898,10.54997 l 5.5689,4.8296 -13.3968,15.19903 -5.5792,-4.83819 c -1.9142,2.07031 -3.852,4.11872 -5.8084,6.14938 -0.5214,0.53984 -1.042,1.08018 -1.5689,1.6142 l 28.8137,27.69157 c 0.5212,-0.5396 1.049,-1.07305 1.569,-1.61418 8.3337,-8.64921 16.3308,-17.61486 23.9724,-26.87643 l -15.3935,-12.45039 1.9653,-2.39613 15.3926,12.4503 c 7.2177,-8.86668 14.1059,-17.99267 20.6496,-27.35801 l -16.4136,-11.10227 1.7657,-2.54343 16.413,11.10158 c 6.481,-9.40783 12.6114,-19.04586 18.3776,-28.89361 l -17.3236,-9.67827 1.5545,-2.67371 17.3227,9.67817 c 5.7001,-9.88517 11.0307,-19.97022 15.98,-30.23343 l -18.1158,-8.18801 1.3326,-2.7857 18.1152,8.18822 c 4.88,-10.2942 9.3741,-20.7567 13.4727,-31.36471 l -18.7863,-6.64292 1.1022,-2.87813 18.7853,6.64199 c 4.0268,-10.63383 7.6541,-21.40279 10.8739,-32.28396 l -19.3291,-5.04994 0.863,-2.95182 19.3289,5.04988 c 3.1461,-10.90048 5.8815,-21.90242 8.201,-32.98194 l -19.7428,-3.42303 0.6193,-3.00443 19.7413,3.42318 c 2.244,-11.09303 4.0694,-22.25294 5.472,-33.45556 l -20.0215,-1.77144 0.37,-3.03752 20.0208,1.7715 c 1.3262,-11.20968 2.2284,-22.45119 2.7048,-33.70041 l -20.1648,-0.10621 0.119,-3.04833 20.1648,0.10605 c 0.3993,-11.25028 0.3725,-22.49688 -0.081,-33.71617 l -20.1717,1.56207 -0.1332,-3.03985 20.1716,-1.56186 c -0.5305,-11.21344 -1.4866,-22.38829 -2.8666,-33.50053 l -20.0413,3.22044 -0.3838,-3.00951 20.0408,-3.2208 c -1.4563,-11.10016 -3.3348,-22.12707 -5.6316,-33.05646 l -19.7749,4.85924 -0.6322,-2.95932 19.7745,-4.85973 c -2.3723,-10.91129 -5.1608,-21.7149 -8.3594,-32.38712 l -19.3733,6.4672 -0.8765,-2.88881 19.3732,-6.46727 c -3.2723,-10.64819 -6.9518,-21.15466 -11.0303,-31.49688 l -18.8398,8.03337 -1.1143,-2.7983 18.8393,-8.03373 c -4.1499,-10.31208 -8.6954,-20.44973 -13.6256,-30.39123 l -18.177,9.54722 -1.3451,-2.68892 18.1773,-9.54686 c -4.9999,-9.90558 -10.3803,-19.60508 -16.1294,-29.077801 L 419.432,104.38768 417.8655,101.8266 435.2547,90.829094 C 429.4396,81.397758 423.2611,72.202549 416.7329,63.263127 l -16.4819,12.376044 -1.7773,-2.416048 16.482,-12.375353 c -6.591,-8.892617 -13.5256,-17.520586 -20.7888,-25.865174 l -15.4608,13.670658 -1.9756,-2.253486 15.4608,-13.670665 c -7.322,-8.29328 -14.9654,-16.29529 -22.9137,-23.9885611 z"
       inkscape:transform-center-x="-368.2166"
       inkscape:transform-center-y="1.2018587" />
    <path
       id="path2859-7"
       style="fill:none;fill-opacity:0.105882;stroke:#0000ff;stroke-width:0.001;stroke-miterlimit:4;stroke-dasharray:none;stroke-opacity:1"
       d="M 309.8802,8.7408179 295.5476,23.61577 293.4301,21.580292 279.0794,36.473721 c 0.3476,0.330637 0.6952,0.661266 1.0415,0.99345 1.4557,1.399103 2.9002,2.809654 4.3334,4.23156 l 3.9545,-3.848421 13.5985,14.101328 -3.9991,3.892977 c 2.9883,3.282602 5.9199,6.616907 8.793,10.001608 l 4.3528,-3.606577 12.3494,15.216063 -4.4029,3.648019 c 2.6962,3.524882 5.3318,7.096561 7.9055,10.71364 l 4.7366,-3.324162 11.0152,16.226974 -4.7912,3.36216 c 2.386,3.74239 4.708,7.5265 6.9648,11.35081 l 5.1025,-3.00152 9.6061,17.12691 -5.1608,3.03585 c 2.0602,3.93403 4.0532,7.9044 5.9784,11.90946 l 5.4458,-2.63968 8.1311,17.90982 -5.5063,2.66901 c 1.7208,4.0982 3.3719,8.22718 4.9528,12.3852 l 5.7613,-2.23878 6.6005,18.5713 -5.8225,2.26281 c 1.3703,4.23436 2.6691,8.49355 3.8959,12.77601 l 6.043,-1.80136 5.0254,19.10475 -6.1058,1.8196 c 1.0115,4.34113 1.9499,8.70116 2.8149,13.07843 l 6.2882,-1.3288 3.4151,19.50817 -6.3499,1.34201 c 0.6463,4.41857 1.2185,8.84986 1.7165,13.29233 l 6.4906,-0.82526 1.7822,19.77785 -6.5513,0.83304 c 0.2776,4.46531 0.4806,8.93741 0.6091,13.41459 l 6.6472,-0.29401 0.1365,19.91312 -6.7047,0.2967 c -0.093,4.48228 -0.2598,8.96498 -0.5012,13.4467 l 6.7537,0.26007 -1.5094,19.91213 -6.8085,-0.26241 c -0.4613,4.46828 -0.9966,8.93132 -1.6055,13.38687 l 6.8067,0.83248 -3.1452,19.77474 -6.8569,-0.83863 c -0.8263,4.42458 -1.7256,8.83777 -2.6974,13.23753 l 6.8044,1.41683 -4.7597,19.503 -6.8499,-1.42652 c -1.1851,4.35097 -2.442,8.68448 -3.7698,12.99855 l 6.7449,2.00781 -6.3418,19.09702 -6.7841,-2.01938 c -1.5355,4.24783 -3.1405,8.47238 -4.8144,12.67163 l 6.6257,2.59907 -7.8805,18.56133 -6.6594,-2.61215 c -1.8749,4.11657 -3.8168,8.20421 -5.825,12.26119 l 6.4479,3.18289 -9.3653,17.89868 -6.4754,-3.19683 c -2.2012,3.95778 -4.4663,7.88106 -6.795,11.76811 l 6.2106,3.75419 -10.7856,17.11354 -6.2334,-3.76708 c -2.5124,3.77229 -5.0853,7.50503 -7.7183,11.19626 l 5.9178,4.30516 -12.1334,16.21183 -5.933,-4.3161 c -2.8065,3.56171 -5.6701,7.07893 -8.5898,10.54989 l 5.5688,4.82964 -13.3967,15.19899 -5.5792,-4.83819 c -1.9142,2.07033 -3.852,4.11873 -5.8084,6.14938 -0.5215,0.53986 -1.042,1.08019 -1.569,1.61423 l 28.8139,27.69158 c 0.5212,-0.53959 1.0489,-1.07298 1.5689,-1.61418 8.3338,-8.64897 16.3311,-17.61473 23.9726,-26.87622 l -15.3935,-12.45038 1.9653,-2.3962 15.3926,12.45031 c 7.2176,-8.86674 14.1061,-17.99264 20.6498,-27.35798 l -16.414,-11.10239 1.7658,-2.54337 16.413,11.10156 c 6.4809,-9.4078 12.6115,-19.04576 18.3777,-28.89352 l -17.3234,-9.67829 1.5545,-2.6737 17.3227,9.67817 c 5.6999,-9.88516 11.0305,-19.9702 15.9797,-30.23349 l -18.1158,-8.18801 1.3329,-2.78565 18.115,8.18821 c 4.8799,-10.29425 9.3741,-20.75668 13.4727,-31.36474 l -18.7861,-6.64286 1.102,-2.87815 18.7853,6.64199 c 4.0267,-10.63378 7.654,-21.40273 10.874,-32.28384 l -19.3292,-5.05001 0.8631,-2.95182 19.3289,5.04995 c 3.1459,-10.90055 5.8816,-21.90242 8.2009,-32.98194 l -19.7427,-3.4231 0.6194,-3.00436 19.7411,3.42318 c 2.244,-11.09302 4.0694,-22.25294 5.4721,-33.45563 l -20.0216,-1.77144 0.3701,-3.03738 20.0207,1.77145 c 1.3262,-11.20977 2.2285,-22.45121 2.705,-33.70043 l -20.1649,-0.10635 0.119,-3.04834 20.1648,0.10621 c 0.3992,-11.25036 0.3724,-22.49703 -0.081,-33.71615 l -20.1717,1.56193 -0.1333,-3.03978 20.1717,-1.56179 c -0.5304,-11.21351 -1.4865,-22.38835 -2.8665,-33.50053 l -20.0413,3.22031 -0.3838,-3.00945 20.0406,-3.2208 c -1.456,-11.10022 -3.3345,-22.127 -5.6314,-33.05653 l -19.775,4.85931 -0.6321,-2.95931 19.7744,-4.85968 c -2.3722,-10.91135 -5.1607,-21.71489 -8.3591,-32.38718 l -19.3735,6.4672 -0.8766,-2.88875 19.3735,-6.46734 c -3.2726,-10.64809 -6.9521,-21.15458 -11.0305,-31.49678 l -18.8398,8.03335 -1.1143,-2.79824 18.8394,-8.03378 c -4.1502,-10.31206 -8.6953,-20.44984 -13.6258,-30.39126 l -18.177,9.54722 -1.3452,-2.68894 18.1774,-9.54685 c -4.9999,-9.90556 -10.3803,-19.6051 -16.1294,-29.077781 l -17.3893,10.997471 -1.5666,-2.56107 17.3893,-10.997456 C 370.0428,81.397978 363.8643,72.202769 357.3361,63.263233 l -16.482,12.376128 -1.7772,-2.416038 16.482,-12.37539 C 348.9679,51.955379 342.0332,43.327382 334.7702,34.98273 l -15.461,13.670701 -1.9756,-2.253507 15.461,-13.670686 C 325.4726,24.4359 317.8291,16.433976 309.8807,8.7407119 Z"
       inkscape:transform-center-x="-368.21662"
       inkscape:transform-center-y="1.2019314" />
    <path
       id="path2861-8"
       style="fill:none;fill-opacity:0.105882;stroke:#0000ff;stroke-width:0.001;stroke-miterlimit:4;stroke-dasharray:none;stroke-opacity:1"
       d="M 250.4834,8.7407679 236.1505,23.615819 234.033,21.580341 219.6824,36.4737 c 0.3476,0.330629 0.6952,0.661258 1.0416,0.993499 1.4556,1.399061 2.9001,2.809604 4.3333,4.231518 l 3.9545,-3.848428 13.5986,14.101293 -3.9992,3.892976 c 2.9883,3.282602 5.9198,6.616893 8.793,10.001594 l 4.3528,-3.60664 12.3492,15.216157 -4.4028,3.648009 c 2.6963,3.524832 5.3318,7.096541 7.9056,10.71361 l 4.7366,-3.324242 11.0152,16.227064 -4.7912,3.36219 c 2.386,3.74236 4.708,7.52648 6.9648,11.35079 l 5.1024,-3.00156 9.6062,17.12695 -5.1608,3.03587 c 2.0602,3.93401 4.0532,7.90438 5.9784,11.90946 l 5.4458,-2.63971 8.1311,17.90983 -5.5063,2.66902 c 1.7208,4.09818 3.3719,8.22717 4.9528,12.38518 l 5.7613,-2.23876 6.6006,18.57133 -5.8225,2.26284 c 1.3703,4.23428 2.6691,8.49354 3.8958,12.77596 l 6.043,-1.80136 5.0254,19.10475 -6.1057,1.81965 c 1.0115,4.34113 1.9498,8.70114 2.8149,13.07842 l 6.2881,-1.3288 3.4151,19.50816 -6.3498,1.34195 c 0.6463,4.41856 1.2184,8.84993 1.7164,13.2924 l 6.4906,-0.82526 1.7822,19.77791 -6.5512,0.83298 c 0.2775,4.46531 0.4805,8.9374 0.609,13.41459 l 6.6472,-0.29401 0.1365,19.91311 -6.7046,0.29671 c -0.093,4.48219 -0.2598,8.96498 -0.5013,13.44669 l 6.7537,0.26008 -1.5094,19.91212 -6.8085,-0.2624 c -0.4613,4.46834 -0.9965,8.93125 -1.6055,13.38687 l 6.8067,0.83247 -3.1451,19.77474 -6.857,-0.83863 c -0.8263,4.42464 -1.7255,8.83774 -2.6974,13.23754 l 6.8044,1.41684 -4.7596,19.50293 -6.8499,-1.42649 c -1.1852,4.35104 -2.442,8.68448 -3.7698,12.99853 l 6.7449,2.00781 -6.3419,19.0971 -6.784,-2.01947 c -1.5356,4.24791 -3.1406,8.47244 -4.8145,12.67169 l 6.6257,2.5991 -7.8804,18.56129 -6.6594,-2.61208 c -1.8749,4.11657 -3.8168,8.20415 -5.8249,12.26114 l 6.4479,3.1829 -9.3655,17.8986 -6.4754,-3.19683 c -2.201,3.95785 -4.4663,7.88114 -6.7949,11.76822 l 6.2106,3.75413 -10.7856,17.11361 -6.2335,-3.76713 c -2.5123,3.77234 -5.0852,7.50506 -7.7183,11.19628 l 5.9178,4.30518 -12.1333,16.21183 -5.933,-4.31622 c -2.8065,3.56184 -5.6701,7.07895 -8.5898,10.55003 l 5.5688,4.82964 -13.3967,15.19898 -5.5792,-4.83819 c -1.9142,2.07033 -3.852,4.11873 -5.8084,6.14938 -0.5215,0.53986 -1.042,1.08019 -1.569,1.61423 l 28.8138,27.69153 c 0.5212,-0.53959 1.049,-1.073 1.569,-1.6142 8.3337,-8.64909 16.3309,-17.61478 23.9725,-26.87632 l -15.3935,-12.4504 1.9651,-2.39626 15.3926,12.45038 c 7.2178,-8.86675 14.1061,-17.99262 20.6498,-27.35798 l -16.4138,-11.10238 1.7659,-2.54329 16.4129,11.10147 c 6.481,-9.40773 12.6115,-19.04576 18.3776,-28.89352 l -17.3234,-9.67821 1.5545,-2.67372 17.3226,9.67812 c 5.7,-9.88517 11.0306,-19.97021 15.9801,-30.23339 l -18.1158,-8.18798 1.3326,-2.78572 18.115,8.18821 c 4.8802,-10.2942 9.3742,-20.75665 13.4726,-31.36479 l -18.786,-6.64281 1.1021,-2.87812 18.7853,6.64191 c 4.0269,-10.63371 7.6542,-21.40265 10.874,-32.2838 l -19.3292,-5.05001 0.863,-2.95183 19.329,5.04995 c 3.1461,-10.9005 5.8815,-21.90244 8.2008,-32.98195 l -19.7426,-3.42303 0.6193,-3.00449 19.7412,3.42317 c 2.2439,-11.09295 4.0693,-22.25286 5.4721,-33.45556 l -20.0216,-1.77144 0.37,-3.03738 20.0209,1.77145 c 1.3262,-11.2097 2.2284,-22.45121 2.7048,-33.70043 l -20.1647,-0.10628 0.1189,-3.04833 20.1647,0.10606 c 0.3993,-11.25028 0.3725,-22.49688 -0.081,-33.7161 l -20.1715,1.56193 -0.1334,-3.03971 20.1716,-1.56186 c -0.5305,-11.21351 -1.4866,-22.38827 -2.8666,-33.5006 l -20.0413,3.22038 -0.3837,-3.00937 20.0407,-3.2208 c -1.4562,-11.10031 -3.3347,-22.12708 -5.6317,-33.05654 l -19.7748,4.85924 -0.6323,-2.95925 19.7748,-4.85973 c -2.3725,-10.91136 -5.161,-21.71489 -8.3594,-32.38718 l -19.3735,6.46716 -0.8765,-2.8887 19.3734,-6.46734 C 358,179.19527 354.3205,168.68878 350.2421,158.34648 l -18.8398,8.03337 -1.1143,-2.79823 18.8393,-8.03373 c -4.1501,-10.3121 -8.6953,-20.44981 -13.6257,-30.39132 l -18.177,9.54725 -1.3452,-2.68891 18.1775,-9.54686 c -5,-9.9056 -10.3804,-19.60514 -16.1296,-29.077751 l -17.3892,10.997461 -1.5665,-2.56107 17.3891,-10.997456 c -5.815,-9.431416 -11.9935,-18.626585 -18.5216,-27.566129 l -16.4822,12.376146 -1.777,-2.416138 16.4818,-12.375301 C 289.5709,51.95523 282.6363,43.327269 275.3734,34.982589 l -15.4611,13.670743 -1.9756,-2.253465 15.461,-13.6707 C 266.0758,24.435801 258.4322,16.433898 250.4838,8.7406269 Z"
       inkscape:transform-center-x="-368.21657"
       inkscape:transform-center-y="1.201889" />
    <path
       id="path2863-6"
       style="fill:none;fill-opacity:0.105882;stroke:#0000ff;stroke-width:0.001;stroke-miterlimit:4;stroke-dasharray:none;stroke-opacity:1"
       d="M 191.0863,8.7408389 176.7535,23.615791 174.636,21.58032 160.2854,36.47369 c 0.3476,0.330629 0.6953,0.661308 1.0416,0.993492 1.4557,1.399061 2.9001,2.809597 4.3334,4.231561 l 3.9544,-3.84836 13.5985,14.101375 -3.999,3.892973 c 2.9883,3.282654 5.9198,6.617002 8.793,10.001654 l 4.3527,-3.606624 12.3493,15.216138 -4.4028,3.648009 c 2.6963,3.524812 5.3319,7.096481 7.9056,10.71354 l 4.7365,-3.324142 11.0153,16.226964 -4.7913,3.36227 c 2.3861,3.7423 4.7081,7.52642 6.9648,11.35073 l 5.1024,-3.00151 9.6063,17.12691 -5.1608,3.03584 c 2.0602,3.93402 4.0531,7.90446 5.9784,11.90948 l 5.4458,-2.63971 8.1311,17.90982 -5.5062,2.66909 c 1.7207,4.09812 3.3718,8.22715 4.9527,12.38513 l 5.7612,-2.23869 6.6007,18.57125 -5.8225,2.26284 c 1.3702,4.23434 2.6691,8.49355 3.8957,12.77602 l 6.0431,-1.80137 5.0254,19.10476 -6.1058,1.81958 c 1.0116,4.34115 1.9499,8.70115 2.815,13.07842 l 6.288,-1.32874 3.4152,19.50812 -6.3498,1.34202 c 0.6462,4.41855 1.2184,8.84986 1.7164,13.29232 l 6.4906,-0.82526 1.7821,19.77787 -6.5511,0.83304 c 0.2775,4.46524 0.4804,8.9374 0.6089,13.41453 l 6.6472,-0.29395 0.1365,19.91305 -6.7046,0.2967 c -0.093,4.48215 -0.2598,8.96498 -0.5013,13.44671 l 6.7538,0.26006 -1.5095,19.91216 -6.8085,-0.26242 c -0.4613,4.46834 -0.9965,8.93124 -1.6055,13.38688 l 6.8067,0.83246 -3.145,19.7748 -6.8571,-0.83868 c -0.8263,4.42464 -1.7255,8.83774 -2.6974,13.23753 l 6.8044,1.41684 -4.7597,19.50301 -6.8498,-1.42657 c -1.1852,4.35106 -2.442,8.68448 -3.7698,12.99853 l 6.7448,2.00788 -6.3418,19.09703 -6.784,-2.01946 c -1.5356,4.24789 -3.1406,8.47245 -4.8144,12.67163 l 6.6256,2.59916 -7.8803,18.56131 -6.6595,-2.6121 c -1.8749,4.11656 -3.8168,8.20423 -5.8248,12.26122 l 6.4478,3.18282 -9.3654,17.8986 -6.4755,-3.19675 c -2.201,3.95776 -4.4663,7.88107 -6.7949,11.76814 l 6.2108,3.75423 -10.7858,17.11351 -6.2335,-3.76713 c -2.5123,3.77235 -5.0852,7.50506 -7.7183,11.19627 l 5.9179,4.30521 -12.1334,16.2118 -5.933,-4.31619 c -2.8065,3.56182 -5.6701,7.07894 -8.5898,10.55 l 5.5688,4.82965 -13.3967,15.19898 -5.5792,-4.83818 c -1.9142,2.07033 -3.852,4.11872 -5.8084,6.14939 -0.5215,0.53986 -1.042,1.08018 -1.569,1.61424 l 28.8137,27.69145 c 0.5213,-0.53959 1.049,-1.07298 1.569,-1.61419 8.3338,-8.64905 16.331,-17.6148 23.9726,-26.87628 l -15.3935,-12.4504 1.9652,-2.39624 15.3925,12.45028 c 7.2178,-8.86668 14.1061,-17.99253 20.6498,-27.35797 l -16.4138,-11.10231 1.7659,-2.54329 16.4129,11.10146 c 6.481,-9.40781 12.6115,-19.04574 18.3777,-28.8935 l -17.3236,-9.67827 1.5546,-2.6738 17.3226,9.67818 c 5.7001,-9.88509 11.0307,-19.97014 15.98,-30.23336 l -18.1158,-8.18801 1.3326,-2.78571 18.1152,8.18821 c 4.88,-10.2942 9.3741,-20.7567 13.4725,-31.36483 l -18.7861,-6.64285 1.1022,-2.87808 18.7853,6.64199 c 4.0268,-10.63374 7.6541,-21.40269 10.8739,-32.28393 l -19.3292,-5.05001 0.8631,-2.95178 19.3289,5.04991 c 3.1461,-10.90043 5.8815,-21.90241 8.2009,-32.98191 l -19.7427,-3.42299 0.6194,-3.00446 19.7412,3.4232 c 2.2439,-11.09305 4.0693,-22.25296 5.4721,-33.45558 l -20.0216,-1.77143 0.3699,-3.03749 20.0209,1.77139 c 1.3263,-11.20961 2.2284,-22.45112 2.7049,-33.70035 l -20.1648,-0.10627 0.1189,-3.04841 20.1648,0.10621 c 0.3993,-11.25029 0.3724,-22.49703 -0.081,-33.71617 l -20.1716,1.56193 -0.1332,-3.03979 20.1715,-1.56178 c -0.5304,-11.21352 -1.4866,-22.38828 -2.8665,-33.50061 l -20.0413,3.22038 -0.3839,-3.00937 20.0409,-3.22087 c -1.4562,-11.10023 -3.3348,-22.12692 -5.6315,-33.0565 l -19.7749,4.85931 -0.6322,-2.95929 19.7745,-4.85968 c -2.3725,-10.91133 -5.1609,-21.71486 -8.3594,-32.38714 l -19.3734,6.4672 -0.8764,-2.8888 19.3732,-6.46728 c -3.2723,-10.64818 -6.9518,-21.15465 -11.0304,-31.49688 l -18.8398,8.03337 -1.1143,-2.79822 18.8394,-8.03381 c -4.1502,-10.31202 -8.6954,-20.44974 -13.6258,-30.39124 l -18.177,9.54722 -1.345,-2.68898 18.1774,-9.54683 c -5.0001,-9.90554 -10.3805,-19.6051 -16.1295,-29.077871 l -17.3894,10.997551 -1.5666,-2.56106 17.3893,-10.997466 C 251.2487,81.397928 245.0703,72.202649 238.5421,63.263218 l -16.482,12.376103 -1.7772,-2.416098 16.482,-12.375304 C 230.1738,51.955308 223.2392,43.327354 215.9761,34.982744 l -15.4609,13.670673 -1.9756,-2.253493 15.4609,-13.670686 C 206.6785,24.435943 199.0351,16.433969 191.0867,8.7407189 Z"
       inkscape:transform-center-x="-368.21656"
       inkscape:transform-center-y="1.2019737" />
    <path
       id="path2865-9"
       style="fill:none;fill-opacity:0.105882;stroke:#0000ff;stroke-width:0.001;stroke-miterlimit:4;stroke-dasharray:none;stroke-opacity:1"
       d="M 131.6893,8.7408169 117.35653,23.615817 115.23899,21.580339 100.88833,36.47372 c 0.3476,0.330629 0.69521,0.661272 1.04156,0.993471 1.45566,1.399081 2.90014,2.809611 4.33339,4.231539 l 3.95451,-3.848429 13.59848,14.101335 -3.99902,3.892978 c 2.98831,3.282597 5.91973,6.616958 8.79305,10.001584 l 4.3527,-3.606604 12.3493,15.216135 -4.4028,3.648019 c 2.6964,3.524762 5.3318,7.096541 7.9055,10.71362 l 4.7366,-3.324232 11.0152,16.226964 -4.7911,3.36225 c 2.386,3.74237 4.708,7.52644 6.9647,11.35075 l 5.1025,-3.00152 9.6061,17.12689 -5.1608,3.03594 c 2.0602,3.93394 4.0532,7.9044 5.9784,11.90939 l 5.4459,-2.63968 8.131,17.9098 -5.5062,2.66906 c 1.7208,4.09817 3.3719,8.2272 4.9528,12.38522 l 5.7612,-2.23874 6.6007,18.57126 -5.8226,2.26282 c 1.3703,4.23437 2.6691,8.49354 3.8959,12.77602 l 6.043,-1.80135 5.0254,19.10474 -6.1058,1.81959 c 1.0115,4.34115 1.9499,8.70114 2.8149,13.07843 l 6.2882,-1.32877 3.4151,19.50815 -6.3499,1.342 c 0.6463,4.41858 1.2185,8.84988 1.7165,13.29232 l 6.4905,-0.82527 1.7822,19.77796 -6.5512,0.83294 c 0.2775,4.46531 0.4806,8.93742 0.609,13.41464 l 6.6473,-0.29404 0.1364,19.91312 -6.7046,0.29672 c -0.093,4.48219 -0.2598,8.96494 -0.5013,13.4467 l 6.7537,0.26007 -1.5092,19.91215 -6.8087,-0.26243 c -0.4613,4.46832 -0.9965,8.93122 -1.6055,13.38687 l 6.8067,0.83246 -3.1451,19.77472 -6.857,-0.83861 c -0.8263,4.42464 -1.7255,8.83775 -2.6974,13.23754 l 6.8046,1.41685 -4.7598,19.50294 -6.8499,-1.42651 c -1.1852,4.35104 -2.442,8.68448 -3.7698,12.99853 l 6.7449,2.00783 -6.3417,19.09709 -6.7842,-2.01947 c -1.5356,4.24791 -3.1405,8.47237 -4.8143,12.67172 l 6.6257,2.59907 -7.8804,18.56139 -6.6595,-2.61226 c -1.875,4.11664 -3.8168,8.20425 -5.825,12.26119 l 6.4479,3.18292 -9.3654,17.89861 -6.4754,-3.19681 c -2.2011,3.95781 -4.4662,7.88115 -6.795,11.7682 l 6.2107,3.75414 -10.7857,17.11358 -6.2333,-3.7671 c -2.5124,3.77228 -5.0852,7.50507 -7.7183,11.19629 l 5.9177,4.30517 -12.1332,16.21184 -5.9332,-4.3162 c -2.80651,3.56185 -5.67012,7.07895 -8.58984,10.54999 l 5.56883,4.82966 -13.39678,15.199 -5.57922,-4.8382 c -1.9142,2.07032 -3.85204,4.11874 -5.80845,6.14939 -0.52145,0.53983 -1.04199,1.08017 -1.56895,1.61419 l 28.81401,27.69151 c 0.5211,-0.53954 1.0489,-1.07299 1.5689,-1.61421 8.3337,-8.64908 16.3309,-17.61473 23.9725,-26.87627 l -15.3935,-12.45039 1.9651,-2.39619 15.3926,12.45029 c 7.2178,-8.86676 14.1061,-17.99263 20.6499,-27.35804 l -16.4139,-11.10233 1.7659,-2.54329 16.4129,11.10147 c 6.4811,-9.40779 12.6115,-19.04575 18.3777,-28.89352 l -17.3236,-9.67826 1.5546,-2.67379 17.3227,9.67818 c 5.7,-9.88511 11.0306,-19.97014 15.98,-30.23343 l -18.1158,-8.18801 1.3325,-2.78563 18.1152,8.18818 c 4.8801,-10.29425 9.3741,-20.75669 13.4726,-31.36479 l -18.7861,-6.64286 1.1021,-2.8781 18.7853,6.64199 c 4.0268,-10.63376 7.6541,-21.40269 10.874,-32.2839 l -19.3292,-5.05001 0.863,-2.95181 19.329,5.04993 c 3.146,-10.90044 5.8815,-21.90242 8.2008,-32.98194 l -19.7426,-3.42304 0.6193,-3.0044 19.7412,3.42319 c 2.2439,-11.09304 4.0693,-22.25295 5.4721,-33.45557 l -20.0216,-1.77143 0.37,-3.03747 20.0209,1.77144 c 1.3261,-11.20966 2.2283,-22.45117 2.7048,-33.70042 l -20.1648,-0.10627 0.119,-3.04837 20.1647,0.10618 c 0.3993,-11.25028 0.3725,-22.49698 -0.081,-33.7162 l -20.1716,1.56195 -0.1332,-3.0398 20.1715,-1.56179 c -0.5303,-11.21347 -1.4865,-22.38835 -2.8665,-33.5005 l -20.0413,3.2203 -0.3837,-3.00942 20.0406,-3.22077 c -1.456,-11.10028 -3.3345,-22.12703 -5.6314,-33.05658 l -19.7749,4.85929 -0.6323,-2.95929 19.7746,-4.85968 c -2.3724,-10.91134 -5.1608,-21.71487 -8.3594,-32.38712 l -19.3733,6.46713 -0.8765,-2.88875 19.3733,-6.46735 c -3.2724,-10.64808 -6.9519,-21.15456 -11.0304,-31.49684 l -18.8398,8.03338 -1.1144,-2.7982 18.8393,-8.03372 c -4.1501,-10.31211 -8.6952,-20.4499 -13.6257,-30.39134 l -18.177,9.54724 -1.345,-2.68899 18.1773,-9.54686 c -4.9999,-9.90559 -10.3804,-19.60505 -16.1295,-29.077751 l -17.3892,10.997471 -1.5666,-2.56107 17.3892,-10.997436 C 191.8516,81.397768 185.6733,72.202559 179.1451,63.263126 l -16.482,12.376065 -1.7772,-2.416078 16.482,-12.37537 C 170.7768,51.95517 163.8422,43.327197 156.5791,34.982579 l -15.461,13.670684 -1.9755,-2.253467 15.4609,-13.670697 C 147.2815,24.435819 139.638,16.433826 131.6897,8.7406089 Z"
       inkscape:transform-center-x="-368.21658"
       inkscape:transform-center-y="1.201841" />
  </g>
</svg>
