<?xml version="1.0" encoding="UTF-8" standalone="no"?>
<svg
   xmlns:dc="http://purl.org/dc/elements/1.1/"
   xmlns:cc="http://creativecommons.org/ns#"
   xmlns:rdf="http://www.w3.org/1999/02/22-rdf-syntax-ns#"
   xmlns:svg="http://www.w3.org/2000/svg"
   xmlns="http://www.w3.org/2000/svg"
   xmlns:sodipodi="http://sodipodi.sourceforge.net/DTD/sodipodi-0.dtd"
   xmlns:inkscape="http://www.inkscape.org/namespaces/inkscape"
   width="1200mm"
   height="700mm"
   viewBox="0 0 1200 700"
   version="1.1"
   id="svg2149"
   inkscape:version="1.0.2-2 (e86c870879, 2021-01-15)"
   sodipodi:docname="Impression finale - Cercle externe.svg">
  <defs
     id="defs2143" />
  <sodipodi:namedview
     id="base"
     pagecolor="#ffffff"
     bordercolor="#666666"
     borderopacity="1.0"
     inkscape:pageopacity="0.0"
     inkscape:pageshadow="2"
     inkscape:zoom="0.12374369"
     inkscape:cx="2641.1763"
     inkscape:cy="1756.7978"
     inkscape:document-units="mm"
     inkscape:current-layer="layer1"
     inkscape:document-rotation="0"
     showgrid="false"
     inkscape:window-width="1842"
     inkscape:window-height="1051"
     inkscape:window-x="-9"
     inkscape:window-y="-9"
     inkscape:window-maximized="1" />
  <metadata
     id="metadata2146">
    <rdf:RDF>
      <cc:Work
         rdf:about="">
        <dc:format>image/svg+xml</dc:format>
        <dc:type
           rdf:resource="http://purl.org/dc/dcmitype/StillImage" />
        <dc:title></dc:title>
      </cc:Work>
    </rdf:RDF>
  </metadata>
  <g
     inkscape:label="Calque 1"
     inkscape:groupmode="layer"
     id="layer1">
    <path
       id="path212"
       style="fill:none;stroke:#0000ff;stroke-width:0.001;stroke-miterlimit:4;stroke-dasharray:none;stroke-opacity:1"
       d="m 812.10169,158.15873 v 90.0421 h -24.9798 V 360.18157 H 597.10806 V 593.1203 h 1.154 v 9.9974 h -1.1529 v 15.0001 a 459.93539,459.93539 0 0 0 459.91054,-459.93577 459.93539,459.93539 0 0 0 0,-0.023 h -15.643 v 1.2552 h -9.9973 v -1.2547 z m 230.64641,13.6891 0.9989,0.035 -0.3498,9.9932 -0.9989,-0.035 z m -12.7062,20.4892 9.9632,0.8258 -0.2475,2.9874 -9.9637,-0.8263 z m -4.2984,35.6878 9.8609,1.6458 -0.4935,2.957 -9.8609,-1.6464 z m -7.2306,35.2112 9.6914,2.4547 -0.7364,2.9057 -9.6914,-2.4551 z m 7.259,17.4718 0.9596,0.2791 -2.7921,9.6015 -0.9601,-0.2791 z m -17.3731,17.0217 9.4557,3.2469 -0.9735,2.8349 -9.4558,-3.2468 z m -12.92788,33.54062 9.15498,4.0168 -1.2041,2.74455 -9.15498,-4.01629 z m -15.6533,32.35876 8.7917,4.75887 -1.4268,2.63602 -8.7917,-4.75888 z m 2.7729,18.43968 0.862,0.50594 -5.0638,8.62272 -0.8619,-0.50644 z m -21.0457,12.51554 8.3695,5.46838 -1.6397,2.50941 -8.369,-5.46891 z m -20.7662,29.34033 7.889,6.14122 -1.8413,2.36521 -7.8889,-6.14122 z m -23.1185,27.52544 7.3552,6.7717 -2.0304,2.205 -7.3546,-6.7717 z m -1.8128,18.2769 0.7111,0.7023 -7.0254,7.1153 -0.7116,-0.7022 z m -23.4993,7.2456 6.7701,7.3556 -2.205,2.0298 -6.7707,-7.3556 z m -27.33373,23.3443 6.1396,7.8899 -2.3652,1.8408 -6.1402,-7.8895 z m -29.1683,21.008 5.4674,8.37 -2.5094,1.6392 -5.4674,-8.37 z m -30.8033,18.527 4.7574,8.7928 -2.6366,1.4263 -4.7573,-8.7928 z m -32.2285,15.92 4.0153,9.1555 -2.7451,1.2041 -4.0152,-9.1561 z m -33.43313,13.2044 3.2453,9.4557 -2.835,0.9731 -3.2453,-9.4563 z m -34.4087,10.3978 2.453,9.6919 -2.9057,0.7353 -2.4531,-9.6919 z m 24.2347,4.269 0.2909,0.956 -9.5653,2.914 -0.2915,-0.956 z m -59.3851,3.252 1.6444,9.8614 -2.9564,0.493 -1.6444,-9.8614 z m -35.6515,4.5925 0.8247,9.9637 -2.9874,0.247 -0.8242,-9.9632 z m -13.438,11.4416 0.048,0.9979 -9.988,0.4765 -0.048,-0.9984 z" />
    <path
       id="path212-2"
       style="fill:none;stroke:#0000ff;stroke-width:0.001;stroke-miterlimit:4;stroke-dasharray:none;stroke-opacity:1"
       d="m 47.2661,150.93454 a 459.93539,459.93539 0 0 0 0,0.0238 459.93539,459.93539 0 0 0 459.93577,459.93575 459.93539,459.93539 0 0 0 0.0249,0 v -15.00063 h -1.84381 v -9.99733 h 1.84381 V 352.95786 H 293.24187 V 150.93454 H 71.69931 v 1.82366 l -9.99731,-0.003 v -1.82108 z m 15.24352,13.1346 0.47593,9.98802 -0.99838,0.0475 -0.47593,-9.98802 z m 10.57298,21.60953 0.24702,2.98742 -9.9632,0.82372 -0.24755,-2.9869 z m 4.34496,35.68206 0.49247,2.95692 -9.86089,1.64383 -0.49299,-2.9564 z m 7.27657,35.20147 0.73536,2.90628 -9.69192,2.45256 -0.73536,-2.90576 z m 10.15855,34.48058 0.97306,2.83497 -9.45626,3.24476 -0.97256,-2.83497 z m 12.97181,33.52354 1.20356,2.74505 -9.15604,4.01474 -1.20354,-2.74505 z m 15.69569,32.33807 1.42626,2.63602 -8.79324,4.75733 -1.42629,-2.63653 z m -1.11723,17.49299 5.1728,8.55762 -0.85524,0.51728 -5.17283,-8.55762 z m 19.42982,13.43794 1.63917,2.50941 -8.37004,5.46736 -1.63917,-2.50992 z m 20.80493,29.31346 1.8407,2.36523 -7.89046,6.13968 -1.84073,-2.36574 z m 23.15413,27.49496 2.02936,2.20554 -7.35616,6.77013 -2.02986,-2.20554 z m 3.25512,17.50951 7.1148,7.02593 -0.70228,0.71107 -7.11481,-7.02593 z m 22.09011,7.97936 2.20504,2.03039 -6.77169,7.35457 -2.20501,-2.03036 z m 27.36422,23.30918 2.36524,1.84124 -6.14175,7.88839 -2.36524,-1.84121 z m 29.19563,20.96926 2.50891,1.63971 -5.46894,8.36898 -2.50938,-1.63968 z m 7.49774,16.45172 8.62221,5.06428 -0.50641,0.86146 -8.62222,-5.06429 z m 23.32934,2.03501 2.63599,1.42679 -4.75888,8.79221 -2.63601,-1.42729 z m 32.24919,15.8781 2.74452,1.20406 -4.0168,9.15501 -2.74505,-1.20407 z m 33.44963,13.16045 2.83496,0.97356 -3.24734,9.45526 -2.83496,-0.97359 z m 34.42271,10.35286 2.90576,0.73638 -2.45567,9.6914 -2.90576,-0.73639 z m -23.07148,4.03127 9.60149,2.79259 -0.27905,0.95962 -9.602,-2.7926 z m 58.23109,3.44371 2.9564,0.49403 -1.6464,9.86089 -2.95642,-0.49403 z m 35.65726,4.54599 2.98688,0.24805 -0.82629,9.9632 -2.98741,-0.24805 z m 14.57843,11.43495 9.99318,0.34986 -0.0351,0.9989 -9.99371,-0.34986 z" />
  </g>
</svg>
