<?xml version="1.0" encoding="UTF-8" standalone="no"?>
<svg
   xmlns:dc="http://purl.org/dc/elements/1.1/"
   xmlns:cc="http://creativecommons.org/ns#"
   xmlns:rdf="http://www.w3.org/1999/02/22-rdf-syntax-ns#"
   xmlns:svg="http://www.w3.org/2000/svg"
   xmlns="http://www.w3.org/2000/svg"
   xmlns:sodipodi="http://sodipodi.sourceforge.net/DTD/sodipodi-0.dtd"
   xmlns:inkscape="http://www.inkscape.org/namespaces/inkscape"
   width="1200mm"
   height="700mm"
   viewBox="0 0 1200 700"
   version="1.1"
   id="svg853"
   inkscape:version="1.0.2-2 (e86c870879, 2021-01-15)"
   sodipodi:docname="Impression finale - Cercle externe part 1.svg">
  <defs
     id="defs847" />
  <sodipodi:namedview
     id="base"
     pagecolor="#ffffff"
     bordercolor="#666666"
     borderopacity="1.0"
     inkscape:pageopacity="0.0"
     inkscape:pageshadow="2"
     inkscape:zoom="0.12374369"
     inkscape:cx="835.28301"
     inkscape:cy="738.92352"
     inkscape:document-units="mm"
     inkscape:current-layer="layer1"
     inkscape:document-rotation="0"
     showgrid="false"
     inkscape:window-width="1647"
     inkscape:window-height="1055"
     inkscape:window-x="32"
     inkscape:window-y="0"
     inkscape:window-maximized="0" />
  <metadata
     id="metadata850">
    <rdf:RDF>
      <cc:Work
         rdf:about="">
        <dc:format>image/svg+xml</dc:format>
        <dc:type
           rdf:resource="http://purl.org/dc/dcmitype/StillImage" />
        <dc:title></dc:title>
      </cc:Work>
    </rdf:RDF>
  </metadata>
  <g
     inkscape:label="Calque 1"
     inkscape:groupmode="layer"
     id="layer1">
    <path
       id="path212-2-0"
       style="fill:none;stroke:#0000ff;stroke-width:0.001;stroke-miterlimit:4;stroke-dasharray:none;stroke-opacity:1"
       d="m 618.77116,84.857741 v 15.07865 h 0.54 v 9.997339 h -0.54 v 232.85971 h 190.0131 v 107.0193 h 24.9799 v 94.957 h 219.27654 v -1.7441 h 9.9973 v 1.7441 h 15.6429 A 459.93539,459.93539 0 0 0 618.77116,84.857741 Z m 14.1793,13.80224 9.9933,0.34934 -0.035,0.998909 -9.9936,-0.349329 z m 20.1099,2.644809 2.9874,0.24755 -0.8258,9.9627 -2.9868,-0.24702 z m 36.5085,4.39819 2.9562,0.49351 -1.6452,9.86089 -2.9569,-0.4935 z m 36.0199,7.39851 2.9059,0.73536 -2.4543,9.69141 -2.9056,-0.73536 z m 16.4663,2.56831 9.602,2.79104 -0.2791,0.96015 -9.602,-2.79207 z m 18.8201,7.77936 2.8348,0.97309 -3.2462,9.45626 -2.835,-0.97358 z m 34.311,13.22608 2.745,1.20457 -4.0163,9.155 -2.745,-1.20407 z m 33.1018,16.01558 2.636,1.42675 -4.7583,8.79224 -2.636,-1.42679 z m 15.3572,6.25181 8.6228,5.06375 -0.506,0.86145 -8.6227,-5.06275 z m 16.3086,12.4416 2.5094,1.6397 -5.4684,8.36898 -2.5094,-1.63967 z m 30.01416,21.24469 2.36525,1.84176 -6.14071,7.88893 -2.3652,-1.84074 z m 28.15696,23.65129 2.20554,2.02983 -6.77169,7.35563 -2.20501,-2.02986 z m 13.3785,9.55238 7.11583,7.02488 -0.70228,0.71159 -7.11584,-7.02593 z m 12.72945,16.34318 2.02985,2.20554 -7.35563,6.77013 -2.02983,-2.20503 z m 23.8802,27.96317 1.84071,2.3647 -7.88943,6.1407 -1.84123,-2.3652 z m 21.48912,29.839 1.6392,2.5094 -8.36954,5.4679 -1.63917,-2.5094 z m 10.64945,12.2649 5.1734,8.5571 -0.8553,0.5173 -5.17331,-8.5571 z m 8.3024,19.2474 1.4262,2.636 -8.7927,4.7589 -1.42628,-2.6371 z m 16.2842,32.97 1.2041,2.7446 -9.1555,4.0158 -1.2041,-2.7451 z m 13.5067,34.2016 0.9731,2.8355 -9.4563,3.2458 -0.9731,-2.8355 z m 7.3381,14.2249 2.9145,9.5654 -0.9565,0.2909 -2.914,-9.5653 z m 3.2974,20.976 0.7354,2.9053 -9.6914,2.4541 -0.7359,-2.9053 z m 7.6921,35.9586 0.4935,2.9564 -9.8614,1.6454 -0.493,-2.9565 z m 4.6968,36.4706 0.2476,2.9879 -9.9637,0.8243 -0.2471,-2.9869 z" />
    <path
       id="path212-2-5"
       style="fill:none;stroke:#0000ff;stroke-width:0.001;stroke-miterlimit:4;stroke-dasharray:none;stroke-opacity:1"
       d="M 583.29147,84.856551 A 459.93539,459.93539 0 0 0 123.35577,544.7686 h 14.4358 v -1.1761 h 9.9973 v 1.1761 h 221.5425 V 342.79344 h 213.9854 V 109.93255 h -2.4572 v -9.997299 h 2.4572 v -15.0787 a 459.93539,459.93539 0 0 0 -0.025,0 z m -12.6034,13.717 0.047,0.9984 -9.9881,0.475399 -0.047,-0.998399 z m -23.4823,2.777099 0.8232,9.9637 -2.9868,0.2465 -0.8238,-9.9632 z m -36.5026,4.4452 1.6438,9.8614 -2.9569,0.4925 -1.6433,-9.8614 z m -36.0108,7.444 2.4526,9.6919 -2.9058,0.7354 -2.4525,-9.6919 z m -13.1464,2.2133 0.2909,0.956 -9.5658,2.913 -0.291,-0.956 z m -22.1263,8.1794 3.2442,9.4567 -2.835,0.9726 -3.2442,-9.4563 z m -34.2941,13.2699 4.0143,9.1566 -2.7451,1.2035 -4.0142,-9.1565 z m -33.0811,16.057 4.7568,8.7937 -2.6366,1.4258 -4.7568,-8.7933 z m -12.1575,5.6502 0.5173,0.8553 -8.5581,5.1718 -0.5168,-0.8553 z m -19.4845,13.084 5.4663,8.3705 -2.5094,1.6387 -5.4664,-8.3705 z m -29.9869,21.2829 6.1392,7.8905 -2.3657,1.8402 -6.1392,-7.8905 z m -28.1269,23.6865 6.7696,7.3566 -2.2055,2.0298 -6.7697,-7.3566 z m -10.3549,8.7384 0.7115,0.7023 -7.0264,7.11483 -0.7111,-0.7023 z m -15.72,17.19029 7.3541,6.77224 -2.0304,2.20501 -7.3541,-6.77224 z m -23.8445,27.99319 7.8884,6.1418 -1.8418,2.3652 -7.8879,-6.1417 z m -21.4515,29.8669 8.369,5.4695 -1.6402,2.5088 -8.3684,-5.4694 z m -18.9115,31.53611 8.7918,4.7599 -1.4268,2.63601 -8.7917,-4.75991 z m -16.2424,32.9902 9.1545,4.01789 -1.2046,2.7445 -9.1544,-4.0173 z m -13.4627,34.21909 9.4552,3.2479 -0.9736,2.835 -9.4552,-3.2479 z m -4.793,13.1486 0.9596,0.279 -2.7931,9.6015 -0.9596,-0.2791 z m -5.7981,22.06526 9.6914,2.45569 -0.7364,2.90563 -9.6909,-2.45553 z m -7.6466,35.96821 9.8609,1.6469 -0.494,2.9564 -9.8604,-1.6469 z m -4.6498,36.4768 9.9627,0.8268 -0.2476,2.9874 -9.9632,-0.8272 z m -1.3751,14.1996 0.9989,0.035 -0.3504,9.9931 -0.9989,-0.035 z" />
  </g>
</svg>
