<?xml version="1.0" encoding="UTF-8" standalone="no"?>
<svg
   xmlns:dc="http://purl.org/dc/elements/1.1/"
   xmlns:cc="http://creativecommons.org/ns#"
   xmlns:rdf="http://www.w3.org/1999/02/22-rdf-syntax-ns#"
   xmlns:svg="http://www.w3.org/2000/svg"
   xmlns="http://www.w3.org/2000/svg"
   xmlns:sodipodi="http://sodipodi.sourceforge.net/DTD/sodipodi-0.dtd"
   xmlns:inkscape="http://www.inkscape.org/namespaces/inkscape"
   width="120cm"
   height="70cm"
   viewBox="0 0 1200 700"
   version="1.1"
   id="svg8"
   inkscape:version="1.0.2-2 (e86c870879, 2021-01-15)"
   sodipodi:docname="Impression finale - Plastique.svg">
  <defs
     id="defs2" />
  <sodipodi:namedview
     id="base"
     pagecolor="#ffffff"
     bordercolor="#666666"
     borderopacity="1.0"
     inkscape:pageopacity="0.0"
     inkscape:pageshadow="2"
     inkscape:zoom="0.17508381"
     inkscape:cx="1961.038"
     inkscape:cy="764.69079"
     inkscape:document-units="mm"
     inkscape:current-layer="layer1"
     inkscape:document-rotation="0"
     showgrid="false"
     units="cm"
     inkscape:window-width="1842"
     inkscape:window-height="1051"
     inkscape:window-x="-9"
     inkscape:window-y="-9"
     inkscape:window-maximized="1" />
  <metadata
     id="metadata5">
    <rdf:RDF>
      <cc:Work
         rdf:about="">
        <dc:format>image/svg+xml</dc:format>
        <dc:type
           rdf:resource="http://purl.org/dc/dcmitype/StillImage" />
        <dc:title></dc:title>
      </cc:Work>
    </rdf:RDF>
  </metadata>
  <g
     inkscape:label="Calque 1"
     inkscape:groupmode="layer"
     id="layer1">
    <path
       id="rect833"
       style="fill:#de8787;fill-opacity:0;stroke:#0000ff;stroke-width:0.00377953;stroke-miterlimit:4;stroke-dasharray:none"
       d="M 297.14844 279.58789 L 297.14844 290.92383 L 238.43555 290.92383 L 238.43555 1651.5508 L 295.14062 1651.5508 L 295.14062 1662.8867 L 332.93555 1662.8867 L 332.93555 1651.5508 L 712.29883 1651.5508 L 712.29883 1662.8867 L 750.09375 1662.8867 L 750.09375 1651.5508 L 1129.4551 1651.5508 L 1129.4551 1662.8867 L 1167.25 1662.8867 L 1167.25 1651.5508 L 1546.6133 1651.5508 L 1546.6133 1662.8867 L 1584.4062 1662.8867 L 1584.4062 1651.5508 L 1963.7695 1651.5508 L 1963.7695 1662.8867 L 2001.5645 1662.8867 L 2001.5645 1651.5508 L 2380.9277 1651.5508 L 2380.9277 1662.8867 L 2418.7207 1662.8867 L 2418.7207 1651.5508 L 2798.084 1651.5508 L 2798.084 1662.8867 L 2835.8789 1662.8867 L 2835.8789 1651.5508 L 2879 1651.5508 L 2879 290.92383 L 2837.8828 290.92383 L 2837.8828 279.58789 L 2800.0898 279.58789 L 2800.0898 290.92383 L 2420.7363 290.92383 L 2420.7363 279.58789 L 2382.9434 279.58789 L 2382.9434 290.92383 L 2003.5684 290.92383 L 2003.5684 279.58789 L 1965.7754 279.58789 L 1965.7754 290.92383 L 1586.4121 290.92383 L 1586.4121 279.58789 L 1548.6191 279.58789 L 1548.6191 290.92383 L 1169.2539 290.92383 L 1169.2539 279.58789 L 1131.4629 279.58789 L 1131.4629 290.92383 L 752.09766 290.92383 L 752.09766 279.58789 L 714.30469 279.58789 L 714.30469 290.92383 L 334.94141 290.92383 L 334.94141 279.58789 L 297.14844 279.58789 z "
       transform="scale(0.26458333)" />
  </g>
</svg>
